<svg width="320" height="520" viewBox="0 0 320 520" xmlns="http://www.w3.org/2000/svg" role="img" aria-label="Stylizovaný kordista">
  <defs>
    <linearGradient id="armor" x1="0%" y1="0%" x2="0%" y2="100%">
      <stop offset="0%" stop-color="#f4f6fb"/>
      <stop offset="100%" stop-color="#cfd8e6"/>
    </linearGradient>
    <linearGradient id="mask" x1="0%" y1="0%" x2="100%" y2="100%">
      <stop offset="0%" stop-color="#1f2e42"/>
      <stop offset="100%" stop-color="#4d6b8c"/>
    </linearGradient>
  </defs>
  <rect width="320" height="520" rx="24" fill="#f9fbff"/>
  <g transform="translate(40 20)">
    <ellipse cx="120" cy="470" rx="65" ry="18" fill="#dde5f3"/>
    <path d="M86 129c10-12 39-12 49 0l6 42h-60z" fill="url(#armor)"/>
    <path d="M78 165h72l12 120c1 6-3 12-9 13-32 6-50 6-82 0-6-1-10-7-9-13z" fill="url(#armor)"/>
    <path d="M60 284l-12 110c-1 6 3 12 9 13l26 5 7-40-7-80z" fill="#d7e1ee"/>
    <path d="M168 284l12 110c1 6-3 12-9 13l-26 5-7-40 7-80z" fill="#d7e1ee"/>
    <path d="M98 38c16-6 38-6 54 0 8 3 14 10 16 18l10 54c2 10-3 21-12 26-22 11-58 11-80 0-9-5-14-16-12-26l10-54c2-8 8-15 16-18z" fill="url(#mask)"/>
    <path d="M90 190l-44 30c-5 3-12 2-15-3l-6-10c-4-6-1-14 5-17l53-26z" fill="#d9e4f4"/>
    <path d="M164 190l44 30c5 3 12 2 15-3l6-10c4-6 1-14-5-17l-53-26z" fill="#d9e4f4"/>
    <path d="M14 212l50-26 12 20-50 26z" fill="#8cb5d9"/>
    <path d="M226 212l-50-26-12 20 50 26z" fill="#8cb5d9"/>
    <path d="M210 206l90 16c6 1 9 7 8 13l-2 12c-1 6-6 10-12 9l-92-20z" fill="#d1dae5"/>
    <path d="M298 221l-2 12-120-28 2-12z" fill="#8098b7"/>
    <circle cx="125" cy="68" r="46" fill="url(#mask)" stroke="#0f1c2d" stroke-width="4"/>
    <ellipse cx="125" cy="68" rx="36" ry="30" fill="#101c2c" opacity="0.85"/>
    <rect x="122" y="20" width="6" height="24" rx="3" fill="#091120"/>
    <path d="M76 417l-3 55 28 8c6 2 12-3 12-9l1-43z" fill="#b9c8db"/>
    <path d="M174 417l3 55-28 8c-6 2-12-3-12-9l-1-43z" fill="#b9c8db"/>
    <path d="M66 468l39 9" stroke="#8ba4c2" stroke-width="6" stroke-linecap="round"/>
    <path d="M182 468l-39 9" stroke="#8ba4c2" stroke-width="6" stroke-linecap="round"/>
  </g>
</svg>
