<?xml version="1.0" encoding="UTF-8" standalone="no"?>
<svg
   xmlns:dc="http://purl.org/dc/elements/1.1/"
   xmlns:cc="http://creativecommons.org/ns#"
   xmlns:rdf="http://www.w3.org/1999/02/22-rdf-syntax-ns#"
   xmlns:svg="http://www.w3.org/2000/svg"
   xmlns="http://www.w3.org/2000/svg"
   xmlns:sodipodi="http://sodipodi.sourceforge.net/DTD/sodipodi-0.dtd"
   xmlns:inkscape="http://www.inkscape.org/namespaces/inkscape"
   width="200mm"
   height="90mm"
   viewBox="0 0 200 90"
   version="1.1"
   id="svg8"
   inkscape:version="1.0.2-2 (e86c870879, 2021-01-15)"
   sodipodi:docname="efee.svg"
   inkscape:export-filename="C:\Users\Jupar\OneDrive\바탕 화면\efee.png"
   inkscape:export-xdpi="300"
   inkscape:export-ydpi="300">
  <defs
     id="defs2" />
  <sodipodi:namedview
     id="base"
     pagecolor="#ffffff"
     bordercolor="#666666"
     borderopacity="1.0"
     inkscape:pageopacity="0.0"
     inkscape:pageshadow="2"
     inkscape:zoom="0.7"
     inkscape:cx="186.73028"
     inkscape:cy="297.75437"
     inkscape:document-units="mm"
     inkscape:current-layer="layer1"
     inkscape:document-rotation="0"
     showgrid="false"
     inkscape:window-width="1619"
     inkscape:window-height="967"
     inkscape:window-x="22"
     inkscape:window-y="9"
     inkscape:window-maximized="0" />
  <metadata
     id="metadata5">
    <rdf:RDF>
      <cc:Work
         rdf:about="">
        <dc:format>image/svg+xml</dc:format>
        <dc:type
           rdf:resource="http://purl.org/dc/dcmitype/StillImage" />
        <dc:title></dc:title>
      </cc:Work>
    </rdf:RDF>
  </metadata>
  <g
     inkscape:label="레이어 1"
     inkscape:groupmode="layer"
     id="layer1">
    <rect
       style="opacity:1;fill:#ffffff;fill-opacity:1;stroke:none;stroke-width:0.334727;stroke-dasharray:1.3389, 0.669451, 0.334727, 0.669451"
       id="rect1142"
       width="200"
       height="90"
       x="0"
       y="0" />
    <path
       id="path847"
       style="opacity:1;fill:#000000;fill-opacity:1;stroke:none;stroke-width:0.264583px;stroke-linecap:butt;stroke-linejoin:miter;stroke-opacity:1"
       d="m 94.575565,5.00016 c -0.16704,0.11693 -0.16727,0.25896 -0.23409,0.30076 -0.51784,0.0251 -1.89004,0.30313 -2.83135,0.47594 -1.24805,0.22911 -3.532658,0.66012 -3.733109,0.74362 -0.214159,0.42834 -0.07572,0.89757 -0.08372,1.36943 0,0 -0.617908,-0.0919 -0.734838,-0.0501 -0.05846,0.11693 -0.06005,1.92401 -0.183967,2.58951 -0.101661,0.54596 -0.579819,1.70316 -0.701768,2.58899 -0.0843,0.61231 -0.108405,1.44489 -0.01654,1.85415 0.06682,0.0418 0.242882,0.11911 0.284221,0.0837 0.05315,-0.10925 0.251571,-0.44537 0.33383,-0.46767 0.05951,-0.0161 0.175021,-0.0162 0.21704,0.0165 0.06447,0.0501 1.261457,1.8541 1.720826,2.99 -0.659953,0.54567 -1.308071,1.10518 -1.957014,1.66381 -0.341427,-0.11358 -1.152925,0.0178 -1.420546,0.30149 0,0 -0.631803,-0.46783 -0.984951,-0.49704 -0.841671,-0.0839 -3.96893,-0.019 -4.520668,0.18228 -1.377079,0.72079 -8.251293,7.85092 -9.565505,9.52305 -0.754157,0.95955 -1.715087,3.36657 -1.715087,3.36657 l -5.314252,4.5519 c -1.58574,1.4776 -3.101736,3.02265 -4.608308,4.57952 -0.601938,0.57126 -1.231138,2.10273 -1.408446,2.49814 -1.205302,0.38541 -1.9485,1.21547 -2.827917,2.07289 -0.262665,0.36702 -0.434176,0.63548 -0.531082,0.97591 -0.31187,0.1022 -1.365375,1.00512 -1.675858,1.36437 -0.271317,0.31393 -0.794745,1.009 -0.90833,1.2879 -0.738048,-0.0745 -1.706653,0.066 -2.272038,-0.0897 -0.431361,0.10846 -1.029539,0.40678 -1.211189,0.5359 -0.166473,-0.0138 -0.892235,0.0702 -1.041312,0.15004 -0.161571,0.0688 -0.488014,0.37912 -0.565645,0.46657 -0.215741,-0.0463 -0.760505,0.0815 -1.019908,0.0969 -0.149077,0.0799 -0.19286,0.23266 -0.113916,0.38326 0.134879,0.25733 0.698018,0.54987 1.011179,0.5431 -0.483309,0.22987 -0.923769,0.90388 -0.923999,1.09913 -0.04336,0.56462 0.280067,0.84856 0.751065,0.90931 -0.161621,0.56574 0.202308,1.14199 1.242303,1.02102 0.07519,0.46884 0.352745,0.65936 1.343827,0.51173 -0.08866,0.2005 0.172344,0.55831 0.808995,0.4199 0.438658,-0.0852 0.863068,-0.70381 0.908418,-0.83667 0.231677,0.0158 1.371579,-0.21523 2.123265,-0.51927 0.340844,-0.037 1.0331,-0.4654 1.216851,-0.75243 0.053,0.047 0.414655,0.1027 0.414655,0.1027 l 0.854022,-1.04373 0.161493,-0.51341 0.613254,0.0909 0.293939,-0.43027 0.8284,0.25504 c 0,0 1.180682,-1.06684 1.651201,-1.59682 0.226512,-0.13059 0.657939,-0.55451 0.65876,-0.8223 0.134389,0.009 0.561393,-0.0883 0.919324,-0.26015 0.489346,-0.21315 3.79635,-2.17333 4.936979,-4.09856 2.504572,-2.11298 3.36791,-2.6531 5.760257,-4.89021 -0.12958,0.20886 -0.535464,1.17298 -0.639239,1.61696 -0.158067,0.12772 -1.008266,0.9785 -1.180806,1.2609 -0.196824,0.27202 -0.748086,1.27855 -0.88315,1.59422 -0.240604,0.13262 -1.40475,1.56404 -1.562695,1.89291 -0.06514,0.0985 -0.120465,0.50936 -0.01913,0.62167 -0.144293,-0.0388 -0.548822,0.0838 -0.660426,0.19688 -1.279745,1.53014 -2.236121,3.22345 -3.153296,4.97748 -0.07891,0.08 -0.200052,0.12253 -0.254765,0.22065 -0.05991,0.10745 -0.07637,0.28169 -0.05891,0.36432 -0.23931,0.0561 -0.409799,0.14761 -0.537953,0.3142 -0.05073,0.0616 -0.02191,0.20544 -0.0062,0.2589 -0.39293,0.2869 -1.07967,0.99564 -1.21026,1.19165 -0.03357,0.0689 -0.06548,0.18361 -0.05426,0.28784 -0.03091,-0.0274 -0.196747,0.0196 -0.237196,0.0429 -0.114496,0.0445 -0.444627,0.33506 -0.510045,0.43098 -0.01664,0.0721 0.02799,0.25887 0.04702,0.33022 -0.05291,-0.0442 -0.250297,-0.0405 -0.302305,-0.0196 -0.07862,0.0209 -0.262581,0.14538 -0.325562,0.23047 -0.05285,0.0564 -0.343944,0.60425 -0.391191,0.79323 -0.08268,0.0413 -0.312051,0.13429 -0.34158,0.20516 -0.2008,0.18899 -1.238168,1.46614 -1.32085,1.60197 -0.08268,0.0236 -0.400419,0.1128 -0.471289,0.21911 -0.05315,0.0945 -0.09892,0.35391 -0.05168,0.59014 -0.141741,-0.0236 -0.493954,0.0893 -0.564825,0.14831 -0.07678,0.0709 -0.197552,0.40995 -0.179834,0.51625 -0.23033,0.15946 -1.9984,2.11881 -2.092894,2.25465 -0.2008,-0.0472 -0.592804,-0.0645 -0.811321,-0.0527 -0.135835,0 -0.451948,0.24531 -0.457854,0.38705 -0.03543,0.18899 -0.02068,0.55833 0.02066,0.71779 -0.224423,0.17717 -2.686142,2.62605 -2.851507,2.85047 -0.188988,-0.0591 -0.568661,-0.13309 -0.769461,-0.015 -0.324823,0.15946 -1.706872,0.90309 -2.037601,1.15704 -0.259859,0.25986 -1.379909,1.63327 -1.568898,1.88722 -0.360258,-0.0709 -0.916149,-0.10697 -1.069702,-0.0656 -0.336635,0.0591 -0.801722,0.33501 -0.91984,0.44131 -0.206706,0.15356 -0.686559,0.83192 -0.733806,1.02681 -0.04725,-0.0886 -0.145284,-0.16942 -0.198437,-0.15761 -0.118118,0.0118 -0.256389,0.0961 -0.2682,0.1788 -0.05315,-0.0413 -0.173707,-0.10786 -0.268201,-0.0842 -0.129929,0.0532 -0.473208,0.31515 -0.532267,0.40669 -0.04429,-0.0532 -0.310945,-0.18655 -0.411345,-0.18655 -0.1506,-0.0118 -0.37495,0.14802 -0.442868,0.18345 -0.09154,-0.10335 -0.349553,-0.19519 -0.405659,-0.17156 -0.124023,0.009 -0.827857,0.29064 -0.91054,0.34674 -0.09154,0.0295 -0.208477,0.12661 -0.223242,0.18862 -0.05906,-0.003 -5.428506,0.74441 -6.502961,1.13533 -2.900889,1.05543 -11.712759,6.70104 -13.992427,6.89002 -1.302492,0.16055 -2.632574,0.21753 -3.924309,-0.031 -0.448846,-0.0118 -2.186799,0.62632 -2.659269,0.62632 -0.826823,0.0236 -1.786897,-0.32121 -2.105814,-0.28578 -0.366165,-0.0236 -1.482745,0.42951 -1.589051,0.524 L 7.376721,80.02359 C 7.246792,80.2362 7.023624,81.67443 7,82.38313 c 0.141741,1.18118 0.801428,3.6612 1.451074,4.80694 0.318918,0.0709 4.358686,-0.93918 5.480803,-1.05729 0.720517,-0.15356 2.260032,-0.1148 2.460831,-0.20929 0.224424,-0.11812 0.866245,-0.73329 0.889869,-0.98134 0.354352,-0.4016 1.889807,-1.14618 1.889807,-1.14618 l 0.132808,-0.40618 c 3.81311,-1.73376 8.18978,-1.2489 12.118266,-2.44777 6.066532,-2.0594 9.841462,-2.00057 13.855858,-2.19587 0.890537,-0.22026 4.172883,-1.68309 5.84564,-2.81999 7.185657,-4.39748 14.588749,-9.33273 22.19761,-12.82815 l 1.384927,0.45372 c 2.827152,0.26707 6.074783,0.87271 14.173814,-1.38235 4.495598,-1.50545 9.661718,-4.13245 12.052493,-5.29528 l 0.59015,0.36122 c 0,0 -1.06664,2.45813 -1.24799,6.3009 -0.13211,2.79952 0.61586,5.58917 0.53744,8.3907 -0.0679,2.42633 -0.871275,7.22954 -0.871275,7.22954 0,0 -0.56083,-0.0869 -0.7154,0.0998 -0.4498,0.59469 -1.02336,2.92522 -1.10459,3.94765 l -0.37243,0.0309 c 0,0 0.33712,1.84388 0.48924,2.21348 0.0571,0.36342 0.89313,1.044 1.4696,1.18723 0.744365,0.18058 6.720215,-0.0278 7.107215,-0.0863 1.23771,0.51808 9.44681,0.82781 9.44681,0.82781 l 0.0295,-0.61339 0.52151,0.0132 c 0.18025,-0.15271 0.28713,-0.49779 0.30428,-0.80646 0.0254,-0.36832 -0.23444,-1.21297 -0.67748,-1.4857 -0.68673,-0.42274 -3.22946,-1.48898 -5.51081,-2.91149 -2.65841,-1.65763 -5.04719,-3.66692 -5.04719,-3.66692 0.0161,-2.5445 1.73959,-11.64341 2.39416,-13.9702 0.71447,-2.53976 1.42877,-6.51522 1.18494,-10.61848 0.0854,-0.95168 -0.0746,-2.04032 -0.34727,-3.01428 -0.12621,-0.45082 -0.28876,-0.91507 -0.58704,-1.27589 -0.5884,-0.71178 -1.4869,-1.44336 -2.25412,-1.61076 -1.40675,-0.17672 -5.63392,-0.16493 -7.412985,0.0868 -2.26018,0.31982 -11.12542,2.73006 -11.12542,2.73006 0.760079,-1.85242 1.69176,-3.61355 3.63114,-6.75249 1.16432,-1.8845 2.6181,-3.4707 3.2873,-4.35794 0.77016,-1.4012 1.81687,-4.17169 1.89291,-4.87412 0.0117,-0.10803 0.50731,-0.45875 0.58239,-0.45475 0.96903,0.0465 6.775765,-0.87844 10.093435,-1.66657 1.5508,-0.3684 2.59502,-0.63063 4.56458,-1.42627 3.66392,-0.91947 7.16429,-2.04153 10.62933,-3.41891 0.13585,-0.0472 0.65265,-0.46937 0.73536,-0.6997 0.0522,0.0648 0.37965,0.14702 0.44855,0.11782 1.9245,-0.85596 3.70071,-1.82566 5.40226,-3.09386 0.12402,-0.0472 0.40042,-0.0748 0.55397,-0.01 0.10631,-0.0177 0.44146,-0.23962 0.55087,-0.26562 0.13707,-0.0325 0.5279,-0.0437 0.7338,-0.0816 0.15444,-0.12317 0.33192,-0.49703 0.36742,-0.60978 0.0459,-0.13572 0.042,-0.43416 0.0253,-0.52606 0.0334,-0.0191 0.1288,-0.0396 0.1664,-0.006 0.0626,0.12737 0.37917,0.3835 0.4961,0.4253 0.0814,0.048 1.07494,0.33962 1.25212,0.34262 0.12106,0.0177 0.58143,-0.0387 0.69659,-0.0357 0.0325,0.0827 0.36946,0.50832 0.46096,0.55552 0.11516,0.0502 0.76448,0.0264 0.85008,-0.0357 0.0443,-0.0295 0.29527,-0.38374 0.37207,-0.51367 0.0502,-0.0856 0.16868,-0.43408 0.15968,-0.53743 0.0325,0.0561 0.61723,0.31584 0.75602,0.31884 0.0768,-0.009 0.53995,-0.3542 0.59015,-0.47232 0.0295,-0.0561 0.10645,-0.22486 0.10645,-0.31936 0.27029,0.16014 0.47798,0.26582 0.80925,0.20722 0.23157,-0.0916 0.41031,-0.3143 0.51987,-0.53795 0.052,-0.30716 0.077,-0.56192 0.0651,-0.81856 0.13696,0.0585 0.28524,0.15167 0.38964,0.18087 0.1921,0.39673 0.89179,0.90359 1.07487,0.99219 0.40484,0.0894 0.63049,0.0207 0.91519,-0.20671 0.14769,-0.17718 0.21274,-0.4312 0.18914,-0.67334 -0.12993,-0.11812 -0.54328,-0.47801 -0.64958,-0.60203 -0.14174,-0.14174 -0.59088,-0.56734 -0.75034,-0.67955 0.17059,-0.28052 0.2924,-0.46525 0.14159,-0.77928 -0.0709,-0.14174 -0.35697,-0.22285 -0.46043,-0.24804 -0.21851,-0.0531 -0.43143,-0.10037 -0.54364,-0.16537 -0.0886,-0.0591 -0.44294,-0.23627 -0.62012,-0.30127 -0.16536,-0.065 -0.87385,-0.24808 -0.99787,-0.30128 -0.22442,-0.0827 -1.3489,-0.78902 -1.53789,-0.94257 -0.065,-0.0354 -0.35254,-0.0702 -0.41754,-0.0584 -0.52562,0.24214 -2.46128,0.66111 -2.65617,0.68471 -0.0472,0.0177 -0.0714,0.0755 -0.0832,0.11679 -0.0591,0.0472 -1.81472,0.0259 -2.14509,0.0413 -0.30232,0.0141 -0.99931,0.19217 -1.0914,0.29404 0.0725,0.0987 0.21638,0.13713 0.25838,0.22583 -1.3477,0.38013 -7.76904,2.33489 -9.05061,2.93729 l 0.0341,0.17105 c -4.07367,0.66866 -7.98486,1.34704 -11.85664,2.64893 -0.48118,-0.0718 -2.1018,-0.18084 -2.57555,-0.12764 -0.66056,0.14802 -1.39969,0.48568 -1.56735,0.62115 -0.27175,-0.0675 -0.7003,-0.0579 -1.05058,-0.0455 -0.39954,0.0141 -1.00287,0.075 -1.19166,0.13642 -0.11185,-0.0519 -0.39461,-0.13711 -0.48731,-0.14831 -0.11429,-0.0225 -0.38644,-0.009 -0.45165,0.0196 -0.10525,-0.0816 -0.44516,-0.25225 -0.5457,-0.25425 -0.45408,0.16477 -0.849915,0.34095 -1.075905,0.78704 -0.0631,-0.0758 -0.23677,-0.15118 -0.28164,-0.13178 0.0296,-0.20675 -0.01,-0.6114 -0.14211,-0.87127 -0.1178,-0.15197 -0.69545,-0.34292 -0.82786,-0.31832 -0.004,-0.075 -0.10477,-0.46324 -0.22893,-0.58136 0,0 4.289415,-2.83176 4.627115,-5.27823 0.21625,-1.56662 0.22557,-4.6252 -0.32969,-6.64249 -0.4798,-1.7431 -1.16495,-3.27967 -2.54353,-4.44934 C 98.555345,5.50809 95.360645,5.008 94.575535,5 Z"
       sodipodi:nodetypes="ccscccsscccscccccsccccccsccccccscccccccccccccccccccccccccccscccccccccccccccccccccccccccccccccccccscccccccccccccccccccccsscccccccccccsscscsacscscscscccccccccccccccccccccccccccccccccccccccccccccccccccccccccssscc" />
    <path
       style="opacity:1;fill:#ffffff;fill-opacity:1;stroke:none;stroke-width:0.250009px;stroke-linecap:butt;stroke-linejoin:miter;stroke-opacity:1"
       d="m 90.700055,12.06617 c 0.0491,-0.64296 0.65552,-0.97801 1.22301,-1.08578 0.56845,-0.10795 1.48615,-0.0774 1.73012,0.48442 0.0154,0.68635 -0.66994,1.06814 -1.14844,1.20272 -0.60872,0.17121 -1.52763,0.0652 -1.80469,-0.60136 z"
       id="path849"
       sodipodi:nodetypes="cscsc" />
    <path
       id="path851"
       style="opacity:1;fill:#000000;fill-opacity:1;stroke:none;stroke-width:0.363064;stroke-dasharray:1.45225, 0.726125, 0.363064, 0.726125"
       d="m 91.825015,11.97843 a 0.2,0.2 0 0 1 -0.2,0.2 0.2,0.2 0 0 1 -0.2,-0.2 0.2,0.2 0 0 1 0.2,-0.2 0.2,0.2 0 0 1 0.2,0.2 z" />
    <path
       id="path851-5"
       style="opacity:1;fill:#000000;fill-opacity:1;stroke:none;stroke-width:0.363064;stroke-dasharray:1.45225, 0.726125, 0.363064, 0.726125"
       d="m 92.998125,11.7223 a 0.2,0.2 0 0 1 -0.2,0.2 0.2,0.2 0 0 1 -0.2,-0.2 0.2,0.2 0 0 1 0.2,-0.2 0.2,0.2 0 0 1 0.2,0.2 z" />
    <path
       style="opacity:1;fill:#ffffff;fill-opacity:1;stroke:none;stroke-width:0.264583px;stroke-linecap:butt;stroke-linejoin:miter;stroke-opacity:1"
       d="m 130.51485,21.04893 c 0.0125,0.1044 0.10156,0.40389 0.16704,0.60136 0.0667,0.2012 0.19002,0.51156 0.22969,0.593 0.0397,-0.0397 0.1917,-0.12703 0.25265,-0.15243 0.0397,-0.0165 0.12529,-0.0355 0.19837,-0.0376 -0.0209,-0.15452 -0.0217,-0.288 -0.005,-0.45295 0.004,0.20045 0.076,0.44596 0.16149,0.57085 0.0934,0.1364 0.26687,0.27256 0.32952,0.29553 0.12737,0.0626 0.99599,0.332 1.24447,0.37585 0.11484,0.0167 0.54917,-0.006 0.72456,-0.0292 -0.023,-0.0272 -0.0739,-0.0729 -0.12114,-0.0835 -0.13884,-0.0312 -0.664,-0.29442 -0.7684,-0.39882 -0.12946,-0.24639 -0.23804,-0.75587 -0.24221,-0.91874 0.008,-0.24639 0.16286,-0.88533 0.30903,-1.01061 -0.35329,0.0158 -0.90182,-0.10049 -1.06909,-0.25057 -0.0842,0.0103 -0.27072,0.093 -0.29232,0.14199 -0.0671,0.15202 -0.0968,0.50728 -0.0835,0.64312 -0.0177,0.0753 -0.0795,0.1616 -0.15034,0.18375 -0.0266,-0.0458 -0.053,-0.14634 -0.0501,-0.19211 0.006,-0.0886 0.1699,-0.52804 0.21715,-0.593 -0.009,-0.031 -0.0889,-0.0767 -0.11693,-0.0752 -0.0793,0.13363 -0.33925,0.33038 -0.45936,0.40926 -0.15985,0.10497 -0.34245,0.11693 -0.42597,0.11693 -0.0376,0.0585 -0.0496,0.17122 -0.0496,0.2631 z"
       id="path877"
       sodipodi:nodetypes="cscsccscccsccccscccccscc" />
    <path
       style="opacity:1;fill:#ffffff;fill-opacity:1;stroke:none;stroke-width:0.264583px;stroke-linecap:butt;stroke-linejoin:miter;stroke-opacity:1"
       d="m 129.36193,18.02728 c 0.1211,0.008 0.46693,0.0615 0.54629,0.0886 0,0 0.33795,-0.15409 0.52563,-0.19489 0.1485,-0.0323 1.2879,0.004 1.50088,0.0418 0.0397,-0.0355 0.27179,-0.10815 0.32572,-0.11693 0.036,-0.006 0.16705,-0.0125 0.16705,-0.0125 v -0.0752 c 0,0 -1.31844,-0.051 -1.97111,0.0251 -0.37127,0.0433 -0.95457,0.16676 -1.09446,0.24402 z"
       id="path879"
       sodipodi:nodetypes="ccscsccsc" />
    <path
       style="opacity:1;fill:#ffffff;fill-opacity:1;stroke:none;stroke-width:0.264583px;stroke-linecap:butt;stroke-linejoin:miter;stroke-opacity:1"
       d="m 133.82676,21.33457 c -0.10352,0.18722 -0.0354,0.52562 0,0.57287 0.0561,0.1063 0.8032,0.86816 0.92132,0.95675 0.0295,0.065 0.0118,0.15651 0.0472,0.21852 0.0591,0.0591 0.25395,0.20671 0.32187,0.20671 0.0738,-0.0561 0.2826,-0.26286 0.38979,-0.47543 0.0674,-0.13367 0.0886,-0.30416 0.0975,-0.35731 -0.0738,-0.0768 -1.09258,-0.88292 -1.18708,-0.92131 -0.0443,-0.0295 -0.0975,-0.20966 -0.11812,-0.31301 -0.0531,-0.0325 -0.18375,-0.0799 -0.23623,-0.0709 -0.0692,0.0118 -0.20049,0.1185 -0.23621,0.18311 z"
       id="path881"
       sodipodi:nodetypes="sccccscccss" />
    <path
       style="opacity:1;fill:#ffffff;fill-opacity:1;stroke:none;stroke-width:0.264583px;stroke-linecap:butt;stroke-linejoin:miter;stroke-opacity:1"
       d="m 133.22932,20.90277 0.0334,0.96885 0.10856,0.13364 0.29233,0.008 c -0.0889,-0.13624 -0.0775,-0.31328 -0.0613,-0.46925 0.0112,-0.1086 0.0582,-0.23485 0.16262,-0.34343 l -0.0436,-0.4707 -0.10375,-0.0664 -0.29285,0.0212 z"
       id="path883"
       sodipodi:nodetypes="ccccsccccc" />
    <path
       style="opacity:1;fill:#ffffff;fill-opacity:1;stroke:none;stroke-width:0.264583px;stroke-linecap:butt;stroke-linejoin:miter;stroke-opacity:1"
       d="m 134.4362,20.61879 c -0.0303,0.12724 -0.008,0.40091 0.0502,0.50114 0.12528,0.21298 0.62708,0.72539 1.01897,0.93544 0.13013,0.0697 0.68487,0.42179 0.78092,0.43014 0.12111,0.0251 0.30485,0.0125 0.45101,-0.17957 0.10677,-0.12575 0.14837,-0.29963 0.13357,-0.4385 -0.0919,-0.0334 -0.58048,-0.46772 -0.69323,-0.63894 -0.0585,-0.071 -0.17122,-0.31321 -0.19628,-0.44684 -0.0585,-0.11275 -0.52618,-0.66399 -0.63476,-0.71828 -0.0877,-0.0668 -0.29091,-0.14653 -0.39673,-0.10023 -0.16469,0.072 -0.48118,0.51938 -0.51362,0.65564 z"
       id="path885"
       sodipodi:nodetypes="scsccccccss" />
    <path
       style="opacity:1;fill:#ffffff;fill-opacity:1;stroke:none;stroke-width:0.264583px;stroke-linecap:butt;stroke-linejoin:miter;stroke-opacity:1"
       d="m 136.43863,20.66264 c -0.0544,0.11016 -0.051,0.26763 -0.0376,0.36959 0.0116,0.0882 0.48685,0.5627 0.69037,0.68685 0.32288,0.19697 0.59632,0.2799 0.80893,0.25923 0.20524,-0.0472 0.33063,-0.14957 0.52272,-0.47948 -0.005,-0.1138 0.0531,-0.26226 0.0531,-0.45019 -0.0961,-0.11693 -0.62513,-0.43049 -1.01241,-0.86983 -0.0667,-0.0757 -0.27895,-0.10986 -0.37709,-0.0865 -0.32075,0.0763 -0.5028,0.27621 -0.648,0.57034 z"
       id="path887"
       sodipodi:nodetypes="ssscccssss" />
    <path
       style="opacity:1;fill:#ffffff;fill-opacity:1;stroke:none;stroke-width:0.264583px;stroke-linecap:butt;stroke-linejoin:miter;stroke-opacity:1"
       d="m 132.6217,17.6308 c -0.0292,0.0125 -0.0522,0.0606 -0.0564,0.10858 0.0271,0.025 0.0752,0.16495 0.1044,0.2443 0.42596,-0.0543 1.81975,-0.17142 2.70611,-0.004 0.53798,0.10161 1.18182,0.39673 1.52843,0.60136 0.21853,-0.0502 0.50256,-0.0542 0.81852,0.0167 0.0413,0.0118 0.1208,0.12571 0.15033,0.16705 0.12107,-0.0236 0.33673,-0.0205 0.48443,0 0.0747,0.0104 0.2935,0.12502 0.46773,0.27562 0.19784,-0.0827 0.51365,-0.1399 0.72664,-0.12528 0.10649,0.0814 0.26101,0.30276 0.28398,0.39255 0.0334,-0.0919 0.0668,-0.2088 -0.0188,-0.37167 -0.0843,-0.0971 -0.21598,-0.16229 -0.36854,-0.20322 -0.21074,-0.0565 -0.39385,-0.11344 -0.58361,-0.16636 -0.071,-0.023 -0.29776,-0.18853 -0.66688,-0.33127 -0.32961,-0.12747 -0.71654,-0.20615 -0.99247,-0.27655 -0.54323,-0.2618 -1.38217,-0.80534 -1.54504,-0.94106 -0.0438,-0.0251 -0.28921,-0.0559 -0.36647,-0.0413 -0.41761,0.16287 -2.13364,0.58356 -2.67236,0.65455 z"
       id="path889"
       sodipodi:nodetypes="cccscccsccccscscccc" />
    <path
       style="opacity:1;fill:#000000;fill-opacity:1;stroke:none;stroke-width:0.264583px;stroke-linecap:butt;stroke-linejoin:miter;stroke-opacity:1"
       d="m 142.11271,15.52909 c -0.20079,0.4016 -0.55728,2.30892 -0.4184,4.13015 0.16302,2.13814 0.45384,3.73648 0.70188,4.53968 0.21262,-0.0236 1.34654,-0.0473 1.81901,-0.25986 1.12212,-1.54734 1.74814,-3.24823 1.74814,-3.77976 l 0.20349,-0.0249 c 0.0181,-0.28698 0.0288,-0.76054 0.017,-0.89638 0,0 10.73163,-0.84018 18.25317,-1.2329 7.52153,-0.39272 26.87763,-0.99194 26.87763,-0.99194 l -0.023,-0.25741 c 0,0 -19.35584,0.64113 -26.87393,1.0349 -7.51808,0.39376 -18.2365,1.20839 -18.2365,1.20839 0.003,-0.24214 -0.0442,-0.69082 -0.13952,-1.03623 h -0.28399 c -0.0945,-0.53153 -1.25953,-2.08735 -1.92098,-2.48895 -0.24805,-0.0591 -1.42857,0.0316 -1.72386,0.0552 z"
       id="path893"
       sodipodi:nodetypes="csccccczcczcccccc" />
    <path
       style="opacity:1;fill:#ffffff;fill-opacity:1;stroke:none;stroke-width:0.264583px;stroke-linecap:butt;stroke-linejoin:miter;stroke-opacity:1"
       d="m 138.26798,20.70264 4.55343,-0.81501 c 0.1054,-0.29651 0.0438,-0.75757 -0.0236,-0.99219 l -2.96192,0.57911 c -0.0585,0.0877 -0.16955,0.17592 -0.28734,0.22408 -0.37797,0.15454 -0.71075,0.14346 -1.13671,0.085 l -0.84774,0.16287 c 0.0236,0.0827 0.15548,0.27688 0.30903,0.4009 0.20671,0.23033 0.39485,0.35525 0.39485,0.35525 z"
       id="path891"
       sodipodi:nodetypes="ccccsccccc" />
    <path
       style="opacity:1;fill:#ffffff;fill-opacity:1;stroke:none;stroke-width:0.264583px;stroke-linecap:butt;stroke-linejoin:miter;stroke-opacity:1"
       d="m 142.28515,15.57617 c 0.20671,0.49609 0.72278,2.47752 0.78302,3.91508 0.0602,1.43756 -0.31738,4.06751 -0.52619,4.6104 l 0.14199,-0.008 c 0.14199,-0.42596 0.63636,-3.16815 0.56794,-4.6104 -0.0684,-1.44225 -0.68345,-3.45687 -0.86654,-3.92343 z"
       id="path895"
       sodipodi:nodetypes="czcczcc" />
    <path
       style="opacity:1;fill:#ffffff;fill-opacity:1;stroke:none;stroke-width:0.264583px;stroke-linecap:butt;stroke-linejoin:miter;stroke-opacity:1"
       d="m 142.49365,15.57339 c 0.27979,0.64312 0.83315,2.2717 0.91246,3.72365 0.0793,1.45195 -0.4443,4.33202 -0.66146,4.79557 0.28815,-0.004 1.03443,-0.0701 1.41445,-0.20375 0.77259,-1.10249 1.51077,-2.44947 1.7488,-3.77329 l 0.21925,-0.0146 c 0.0546,-0.67408 -0.0145,-1.6494 -0.14461,-2.06483 l -0.28287,-0.0339 c -0.17918,-0.59304 -0.97065,-1.73784 -1.93331,-2.47017 -0.17957,-0.0251 -1.12656,0.0163 -1.27272,0.0413 z"
       id="path899"
       sodipodi:nodetypes="czccccccccc" />
    <path
       style="opacity:1;fill:#000000;fill-opacity:1;stroke:none;stroke-width:0.264583px;stroke-linecap:butt;stroke-linejoin:miter;stroke-opacity:1"
       d="m 145.04203,19.30885 c 0.0907,2.17958 -0.52817,3.54778 -0.86226,4.29948 0.88588,-1.25795 1.4499,-2.48047 1.63888,-3.52581 -0.0325,-0.12402 -0.091,-0.60285 -0.13036,-1.05553 -0.0394,-0.45267 -0.0351,-0.80187 -0.0114,-0.95542 -0.16536,-0.55515 -1.16444,-1.93712 -1.9296,-2.44299 0.50773,0.7515 1.21174,1.68592 1.29474,3.68027 z"
       id="path901"
       sodipodi:nodetypes="scczccs" />
    <path
       style="opacity:1;fill:#ffffff;fill-opacity:1;stroke:none;stroke-width:0.264583px;stroke-linecap:butt;stroke-linejoin:miter;stroke-opacity:1"
       d="m 129.5949,18.43476 c 0,0 0.27717,0.66751 0.41077,1.05126 0.14638,0.42046 0.39569,1.27568 0.39569,1.27568 -0.0393,0.52337 0.21055,1.03256 0.38496,1.515 -0.0354,0.0945 -0.053,0.32023 -0.0601,0.44575 -0.009,0.16239 0.0502,0.47837 0.0502,0.47837 -0.065,0.031 -0.28793,0.059 -0.3898,0.0443 -0.0105,-0.28461 0.0881,-0.70667 0.1742,-0.93608 -0.29529,0.10335 -0.67251,0.44556 -0.72052,0.53743 0.0125,0.12111 -0.0503,0.35012 -0.1004,0.38979 -0.048,0.0397 -0.21494,0.0564 -0.27757,0 -0.0271,-0.0731 -0.46006,-0.45564 -0.60831,-0.54334 0.002,-0.0397 0.0586,-0.0913 0.1004,-0.11221 0.0835,-0.0251 0.33913,-0.008 0.502,0.1004 0.0585,-0.16704 0.23347,-0.40875 0.62602,-0.6969 0.0209,-0.0626 -0.004,-0.17329 -0.0413,-0.2067 -0.0626,-0.0543 -0.27369,-0.10623 -0.3071,-0.006 -0.0752,0.15869 -0.33668,0.43086 -0.44885,0.44884 -1.08008,0.17318 -2.36102,0.14159 -3.28882,0.58662 -1.11413,0.56306 -2.21993,1.14649 -3.19053,1.9377 -0.11529,-0.11257 -0.3141,-0.0265 -0.43263,-0.18071 0.0298,-0.20691 0.0934,-0.3979 0.2732,-0.59846 0.0683,-0.0761 0.23181,-0.17813 0.41933,-0.16851 0.14481,0.10524 0.25359,0.10491 0.35816,0.054 0.15341,-0.1307 0.45519,-0.34662 0.80181,-0.45937 -0.32156,-0.0626 -0.78128,-0.0641 -1.03567,0 -0.32609,0.0821 -0.64879,0.26852 -0.82269,0.40926 -0.18446,0.14929 -0.32897,0.29843 -0.42502,0.48218 -0.1211,-0.0626 -0.33406,-0.37451 -0.34659,-0.46221 0.22642,-0.34155 0.5791,-0.59719 0.9095,-0.74414 0.15944,-0.0709 0.3893,-0.18279 0.67327,-0.15356 0.12528,-0.14616 0.25842,-0.32761 0.28348,-0.51971 -0.27562,0.0334 -0.64432,0.11956 -0.94076,0.27918 -0.35703,0.19224 -0.85332,0.61923 -0.85332,0.61923 -0.0501,-0.35079 -0.64784,-1.64016 -0.84412,-1.8949 1.13172,-0.58465 7.13519,-2.57059 8.77111,-2.97219 z"
       id="path903"
       sodipodi:nodetypes="csccsccccccccccccscccscccssccsccsccc" />
    <path
       style="opacity:1;fill:#ffffff;fill-opacity:1;stroke:none;stroke-width:0.264583px;stroke-linecap:butt;stroke-linejoin:miter;stroke-opacity:1"
       d="m 130.3984,22.49803 c -0.11812,0.0384 -0.32498,0.2316 -0.39569,0.32187 -0.0683,0.0873 -0.0295,0.32482 -0.0443,0.43112 0.0384,0 0.29825,-0.009 0.29825,-0.009 -0.0207,-0.16241 0.0679,-0.63189 0.14174,-0.7441 z"
       id="path905"
       sodipodi:nodetypes="csccc" />
    <path
       style="opacity:1;fill:#ffffff;fill-opacity:1;stroke:none;stroke-width:0.264583px;stroke-linecap:butt;stroke-linejoin:miter;stroke-opacity:1"
       d="m 122.75568,25.15402 c 0.0376,0.096 0.11276,0.19627 0.15452,0.29232 0.48442,-0.39255 1.67773,-1.18741 2.59335,-1.64537 0.68166,-0.34094 1.56532,-0.85564 2.13225,-0.84855 0.14222,0.002 0.61677,0.17867 1.00951,0.74563 l 0.22619,-0.15084 c -0.33959,-0.45771 -1.04999,-0.89391 -1.22144,-0.86543 -0.69967,0.11621 -1.6259,0.46393 -2.38038,0.83522 -0.89724,0.44155 -2.26343,1.31128 -2.514,1.63702 z"
       id="path907"
       sodipodi:nodetypes="ccssccssc" />
    <path
       style="opacity:1;fill:#ffffff;fill-opacity:1;stroke:none;stroke-width:0.264583px;stroke-linecap:butt;stroke-linejoin:miter;stroke-opacity:1"
       d="m 123.25264,26.02265 c 0.025,0.0501 0.0668,0.24221 0.0668,0.24221 0.66817,-0.22551 1.31147,-0.53357 1.93352,-0.86862 0.67659,-0.36442 1.69132,-1.04821 1.87507,-1.18602 l 0.0543,-0.27561 c -0.21298,0.15034 -1.3292,0.82894 -2.02122,1.19436 -0.62117,0.328 -1.22359,0.64312 -1.90846,0.89368 z"
       id="path909"
       sodipodi:nodetypes="ccsccsc" />
    <path
       id="path911"
       style="opacity:1;fill:#ffffff;fill-opacity:1;stroke:none;stroke-width:0.302321;stroke-dasharray:1.20928, 0.60464, 0.302321, 0.60464"
       d="m 127.96223,23.6733 a 0.23032925,0.25395274 0 0 1 -0.23033,0.25395 0.23032925,0.25395274 0 0 1 -0.23033,-0.25395 0.23032925,0.25395274 0 0 1 0.23033,-0.25395 0.23032925,0.25395274 0 0 1 0.23033,0.25395 z" />
    <path
       style="opacity:1;fill:#000000;fill-opacity:1;stroke:none;stroke-width:0.264583px;stroke-linecap:butt;stroke-linejoin:miter;stroke-opacity:1"
       d="m 123.64855,22.88472 c 0.18791,-0.19628 0.2855,-0.40088 0.37321,-0.54287 0.6974,-0.0459 2.11858,-0.29946 3.13728,-0.61159 0.7118,-0.2181 1.66686,-0.57757 2.05524,-0.87407 0.11692,0.0376 0.28478,0.27214 0.33072,0.4016 -0.0167,0.16287 -0.17143,0.38489 -0.27167,0.4016 -0.42596,-0.0209 -1.33038,0.15157 -1.97255,0.33073 -0.85284,0.23793 -2.03853,0.74234 -2.46866,0.98038 -0.29232,-0.0626 -1.02488,-0.10248 -1.18357,-0.0858 z"
       id="path914"
       sodipodi:nodetypes="ccscccscc" />
    <path
       style="opacity:1;fill:#ffffff;fill-opacity:1;stroke:none;stroke-width:0.264583px;stroke-linecap:butt;stroke-linejoin:miter;stroke-opacity:1"
       d="m 122.57607,25.888 c 0.0591,0.0236 0.20671,0.26576 0.17717,0.34254 -0.065,0.21261 -0.95876,0.90541 -1.67136,1.25796 -0.9706,0.48019 -2.55724,0.90359 -2.55724,0.90359 1.40094,-0.72256 2.7899,-1.47173 4.05143,-2.50409 z"
       id="path916"
       sodipodi:nodetypes="ccscc" />
    <path
       style="opacity:1;fill:#ffffff;fill-opacity:1;stroke:none;stroke-width:0.264583px;stroke-linecap:butt;stroke-linejoin:miter;stroke-opacity:1"
       d="m 121.70331,24.66125 c -0.17185,0.36862 -0.0984,0.50783 0.0668,0.85192 -0.61806,0.56795 -2.95798,1.88067 -4.56029,2.57247 -1.60072,0.69112 -4.9946,1.5535 -4.9946,1.5535 4.25961,-1.65373 7.58377,-3.37427 9.48807,-4.97789 z"
       id="path918"
       sodipodi:nodetypes="ccscc" />
    <path
       style="opacity:1;fill:#ffffff;fill-opacity:1;stroke:none;stroke-width:0.264583px;stroke-linecap:butt;stroke-linejoin:miter;stroke-opacity:1"
       d="m 120.4612,21.69058 c 0.0725,0.0253 0.26821,0.609 0.38585,0.91776 0.12618,0.33114 0.46418,0.84211 0.31791,0.96913 -1.49002,1.74 -2.88068,2.87009 -5.17429,4.12349 -1.25627,0.68651 -4.57503,1.76278 -4.57503,1.76278 1.25733,-1.37231 2.05628,-2.76234 2.62054,-4.48646 -0.86879,0.91616 -3.30934,4.09967 -4.81198,4.17851 0.78572,-1.19909 1.84387,-2.39948 2.10031,-3.61507 -0.56818,0.24763 -0.71036,0.84361 -0.93556,1.38084 -0.2625,0.22896 -0.65148,0.34637 -0.83073,0.35702 -1.27191,1.64978 -2.21724,2.31343 -4.05048,3.19142 1.52269,-1.14474 1.6773,-2.07297 2.19683,-3.72023 0.22372,-0.70932 0.91733,-1.68741 0.91733,-1.68741 -5.00251,4.64531 -4.2814,6.37997 -11.141955,8.43611 5.481105,-3.51816 7.366375,-6.95695 9.422005,-9.24972 0.81981,-0.16853 1.31916,0.0582 1.79241,0.25773 3.21002,-1.19824 8.19422,-2.41592 11.76684,-2.8159 z"
       id="path920"
       sodipodi:nodetypes="cscscccccccsccccc" />
    <path
       style="opacity:1;fill:#000000;fill-opacity:1;stroke:none;stroke-width:0.264583px;stroke-linecap:butt;stroke-linejoin:miter;stroke-opacity:1"
       d="m 114.49995,25.93888 c 0.43282,-0.69507 1.25472,-1.41327 1.68082,-2.40915 -0.0502,1.44292 -0.68586,2.33569 -1.48943,3.47364 1.40222,-0.58654 1.69877,-1.12439 2.68213,-1.98827 0.91644,-0.80509 1.77593,-1.75876 2.90917,-2.01359 -0.89713,0.67246 -1.60857,1.96565 -2.56146,2.79615 -1.23175,1.06391 -2.72114,1.67219 -4.23523,2.22627 0.49493,-0.67112 0.57972,-1.38762 1.014,-2.08505 z"
       id="path922"
       sodipodi:nodetypes="sccscccs" />
    <path
       style="opacity:1;fill:#000000;fill-opacity:1;stroke:none;stroke-width:0.264583px;stroke-linecap:butt;stroke-linejoin:miter;stroke-opacity:1"
       d="m 116.81014,24.59904 c 0.19965,-0.50422 0.17537,-0.96128 0.16062,-1.29195 0.64175,-0.14894 1.1886,-0.23332 2.22833,-0.5173 -1.13077,0.65897 -1.82614,1.22107 -2.38895,1.80925 z"
       id="path924"
       sodipodi:nodetypes="cccc" />
    <path
       style="opacity:1;fill:#000000;fill-opacity:1;stroke:none;stroke-width:0.264583px;stroke-linecap:butt;stroke-linejoin:miter;stroke-opacity:1"
       d="m 112.17171,25.05647 c -0.01,0.25995 -0.0971,0.75879 -0.41222,1.22933 0.47209,-0.36273 1.12257,-0.96196 1.39547,-1.43836 -0.31459,0.17233 -0.78436,0.28145 -0.98325,0.20903 z"
       id="path926"
       sodipodi:nodetypes="cccc" />
    <path
       style="opacity:1;fill:#000000;fill-opacity:1;stroke:none;stroke-width:0.264583px;stroke-linecap:butt;stroke-linejoin:miter;stroke-opacity:1"
       d="m 109.33414,24.90172 c -0.082,0.31252 -0.15635,1.27309 -0.10625,1.43687 0.11203,0.36622 0.61192,0.40263 0.78353,0.30369 -0.22695,-0.235 -0.58025,-1.3026 -0.67728,-1.74056 z"
       id="path928"
       sodipodi:nodetypes="cscc" />
    <path
       style="opacity:1;fill:#ffffff;fill-opacity:1;stroke:none;stroke-width:0.264583px;stroke-linecap:butt;stroke-linejoin:miter;stroke-opacity:1"
       d="m 132.99038,19.7363 c -0.0102,0.10937 0.30957,0.52096 0.68698,0.57832 0.25639,0.039 0.42769,0.0164 1.09856,-0.0987 -0.90342,0.003 -1.28306,-0.0493 -1.78554,-0.47958 z"
       id="path930"
       sodipodi:nodetypes="cscc" />
    <path
       style="opacity:1;fill:#ffffff;fill-opacity:1;stroke:none;stroke-width:0.264583px;stroke-linecap:butt;stroke-linejoin:miter;stroke-opacity:1"
       d="m 102.38531,31.86301 c 1.7471,-0.9043 3.37647,-3.26588 4.58882,-4.72389 -0.50227,1.37467 -1.45109,2.73594 -2.64415,3.93897 1.7821,-0.32689 3.18756,-1.17461 4.49229,-2.12441 -0.12332,0.45914 -1.05859,1.33468 -1.05859,1.33468 1.12961,-0.2334 2.24548,-0.69792 3.34602,-1.42041 -0.34586,0.65644 -1.14295,1.32296 -1.14295,1.32296 l 2.24847,-0.55177 c -2.95198,1.45174 -5.17378,2.2239 -8.26016,2.733 0.97014,-0.35208 2.9697,-0.86446 4.59548,-1.79586 -1.84379,0.42494 -4.61465,0.91011 -6.16523,1.28673 z"
       id="path932"
       sodipodi:nodetypes="ccccccccccc" />
    <path
       style="opacity:1;fill:#000000;fill-opacity:1;stroke:none;stroke-width:0.264583px;stroke-linecap:butt;stroke-linejoin:miter;stroke-opacity:1"
       d="m 108.766,25.89473 c -0.0281,0.65429 0.10758,1.10641 0.2778,1.15486 -0.37089,0.65793 -0.88549,1.29093 -1.56989,1.74158 0.52871,-0.81791 0.47115,-1.92729 1.29209,-2.89644 z"
       id="path934"
       sodipodi:nodetypes="cccc" />
    <path
       style="opacity:1;fill:#000000;fill-opacity:1;stroke:none;stroke-width:0.264583px;stroke-linecap:butt;stroke-linejoin:miter;stroke-opacity:1"
       d="m 109.84737,24.94359 c -0.0445,0.23692 0.0806,1.07454 0.43729,1.30435 0.0253,-0.27761 0.17417,-0.72991 0.77867,-1.11724 -0.47474,0.0366 -0.66468,-0.20313 -1.21596,-0.18711 z"
       id="path936"
       sodipodi:nodetypes="cccc" />
    <path
       style="opacity:1;fill:#ffffff;fill-opacity:1;stroke:none;stroke-width:0.264583px;stroke-linecap:butt;stroke-linejoin:miter;stroke-opacity:1"
       d="m 98.246915,32.06849 c 1.835925,-1.2386 3.395085,-3.04042 4.683035,-5.02315 -0.32208,0.75276 -0.679,1.81524 -1.45112,2.7604 1.13602,-0.77175 2.52142,-2.31318 3.21227,-3.75775 -0.57401,0.49558 -1.12842,1.35512 -1.82846,1.79784 0.76652,-1.03948 1.06332,-1.96011 1.34805,-2.545 -0.46988,0.65505 -5.258075,6.0986 -5.963775,6.76766 z"
       id="path938"
       sodipodi:nodetypes="ccccccc" />
    <path
       style="opacity:1;fill:#ffffff;fill-opacity:1;stroke:none;stroke-width:0.264583px;stroke-linecap:butt;stroke-linejoin:miter;stroke-opacity:1"
       d="m 104.02653,26.39391 c 0.55274,-0.83607 1.36542,-1.66248 1.61983,-1.88677 -0.11697,0.42529 -0.44119,1.088 -0.89197,1.80924 0.73914,-0.79694 1.39519,-1.78894 1.78985,-2.04667 -0.13884,-0.0838 -0.35125,-0.13808 -0.67691,-0.12709 -0.14808,0.0423 -1.40099,1.20439 -1.8408,2.25129 z"
       id="path940"
       sodipodi:nodetypes="cccccc" />
    <path
       style="opacity:1;fill:#ffffff;fill-opacity:1;stroke:none;stroke-width:0.264583px;stroke-linecap:butt;stroke-linejoin:miter;stroke-opacity:1"
       d="m 100.59489,28.76966 c 1.04961,-0.85515 3.04126,-3.28086 3.4973,-3.87001 -0.15994,-0.1029 -0.54905,-0.0798 -0.80528,-0.0113 -0.28986,0.6976 -1.88325,2.7565 -2.69202,3.88132 z"
       id="path942"
       sodipodi:nodetypes="cccc" />
    <path
       style="opacity:1;fill:#ffffff;fill-opacity:1;stroke:none;stroke-width:0.264583px;stroke-linecap:butt;stroke-linejoin:miter;stroke-opacity:1"
       d="m 101.09344,25.01277 c -0.0404,0.91351 -0.19996,2.01159 -0.56486,3.03904 0.9087,-1.0361 1.58521,-1.79809 2.09792,-2.72783 -0.54973,0.50597 -0.96848,0.82667 -1.25484,0.98568 0.0801,-0.64372 -0.20117,-1.19498 -0.27822,-1.29689 z"
       id="path944"
       sodipodi:nodetypes="ccccc" />
    <path
       style="opacity:1;fill:#ffffff;fill-opacity:1;stroke:none;stroke-width:0.264583px;stroke-linecap:butt;stroke-linejoin:miter;stroke-opacity:1"
       d="m 101.55424,24.91764 c -0.0186,0.10988 -0.0189,0.38601 0.12499,0.69541 0.24517,-0.0982 0.50734,-0.4736 0.54993,-0.60163 -0.0643,-0.0966 -0.57347,-0.21694 -0.67492,-0.0938 z"
       id="path946"
       sodipodi:nodetypes="cccc" />
    <path
       style="opacity:1;fill:#ffffff;fill-opacity:1;stroke:none;stroke-width:0.264583px;stroke-linecap:butt;stroke-linejoin:miter;stroke-opacity:1"
       d="m 100.6949,24.81811 c -0.44872,0.89682 -1.939165,5.10191 -2.027975,5.86021 -1.20489,-0.56428 -4.04213,-2.6887 -5.55762,-4.53928 -1.89926,-2.31919 -3.36201,-5.60685 -4.204051,-7.94975 0.195044,-1.08255 0.714581,-2.20332 2.115021,-2.98716 1.60497,-0.89831 4.71264,-1.09164 4.71264,-1.09164 0.0674,0.43107 2.42238,9.59514 2.4427,9.93697 0.0834,-0.005 0.74397,0.1817 0.85046,0.28414 0.0756,0.14611 0.19408,0.59088 0.0795,0.91563 0.10591,-0.0481 0.58808,0.0404 0.75689,0.20603 0.0897,-0.18103 0.548945,-0.61831 0.832425,-0.63515 z"
       id="path949"
       sodipodi:nodetypes="ccscscccccc" />
    <path
       id="path951"
       style="opacity:1;fill:#000000;fill-opacity:1;stroke:none;stroke-width:0.31067;stroke-dasharray:1.24267, 0.621338, 0.31067, 0.621338"
       d="m 91.126285,17.06298 a 0.32475487,0.32622978 0 0 1 -0.32475,0.32623 0.32475487,0.32622978 0 0 1 -0.32476,-0.32623 0.32475487,0.32622978 0 0 1 0.32476,-0.32623 0.32475487,0.32622978 0 0 1 0.32475,0.32623 z" />
    <path
       style="opacity:1;fill:#000000;fill-opacity:1;stroke:none;stroke-width:0.264583px;stroke-linecap:butt;stroke-linejoin:miter;stroke-opacity:1"
       d="m 89.149525,18.1615 c 0,0 0.52743,-1.45555 1.10516,-1.91156 1.33961,-1.05737 4.90642,-1.46298 4.90642,-1.46298 l 0.0466,0.18655 c 0,0 -3.51155,0.40004 -4.83707,1.4352 -0.56675,0.44259 -1.09653,1.8578 -1.09653,1.8578 z"
       id="path954"
       sodipodi:nodetypes="csccscc" />
    <path
       style="opacity:1;fill:#000000;fill-opacity:1;stroke:none;stroke-width:0.264583px;stroke-linecap:butt;stroke-linejoin:miter;stroke-opacity:1"
       d="m 89.353755,18.55589 0.24411,0.58791 c 0.44229,-0.16015 3.99668,-0.89013 4.71759,-1.00827 0.58948,-0.0769 1.14718,0.0155 1.40127,0.0674 l 0.0332,-0.28645 c -0.19424,-0.0303 -1.24286,-0.0768 -1.4655,-0.0217 -0.55027,0.0327 -4.04581,0.76753 -4.59352,0.98415 l -0.1665,-0.40844 z"
       id="path956"
       sodipodi:nodetypes="ccccccccc" />
    <path
       style="opacity:1;fill:#ffffff;fill-opacity:1;stroke:none;stroke-width:0.264583px;stroke-linecap:butt;stroke-linejoin:miter;stroke-opacity:1"
       d="m 87.459004,14.26748 c 0.19019,-0.17864 0.698589,-1.33838 0.758352,-1.45907 0.06745,0.43107 0.479433,3.70316 0.507588,4.03616 0,0 -1.12651,-2.34273 -1.26594,-2.57709 z"
       id="path958"
       sodipodi:nodetypes="cccc" />
    <path
       style="opacity:1;fill:#ffffff;fill-opacity:1;stroke:none;stroke-width:0.264583px;stroke-linecap:butt;stroke-linejoin:miter;stroke-opacity:1"
       d="m 87.676641,8.30965 c 0.233875,0.69729 0.626708,3.02389 0.583549,3.84641 l 0.153281,-0.009 c 0.03433,-0.83037 -0.319841,-3.26863 -0.57526,-3.90607 z"
       id="path960"
       sodipodi:nodetypes="ccccc" />
    <path
       style="opacity:1;fill:#ffffff;fill-opacity:1;stroke:none;stroke-width:0.264583px;stroke-linecap:butt;stroke-linejoin:miter;stroke-opacity:1"
       d="m 91.251765,6.9888 c 1.45635,1.13502 2.80145,3.21375 3.24463,6.16604 l 0.25887,-0.14925 c -0.37351,-2.90622 -2.05326,-5.26628 -3.27798,-6.16406 z"
       id="path962"
       sodipodi:nodetypes="ccccc" />
    <path
       style="opacity:1;fill:#000000;fill-opacity:1;stroke:none;stroke-width:0.264583px;stroke-linecap:butt;stroke-linejoin:miter;stroke-opacity:1"
       d="m 90.194385,20.17095 c 0.34887,1.0837 2.64696,5.6828 8.18477,9.88859 l 0.0586,-0.42183 c -5.35934,-4.30006 -7.73964,-8.59307 -8.24337,-9.46676 z"
       id="path964"
       sodipodi:nodetypes="cccc" />
    <path
       style="opacity:1;fill:#000000;fill-opacity:1;stroke:none;stroke-width:0.264583px;stroke-linecap:butt;stroke-linejoin:miter;stroke-opacity:1"
       d="m 91.564315,19.96223 c 0.93978,1.73467 3.73984,5.91071 7.1079,8.52184 l 0.12827,-0.37577 c -3.55661,-2.96807 -6.11529,-7.02458 -7.23617,-8.14607 z"
       id="path964-3"
       sodipodi:nodetypes="cccc" />
    <path
       style="opacity:1;fill:#000000;fill-opacity:1;stroke:none;stroke-width:0.264583px;stroke-linecap:butt;stroke-linejoin:miter;stroke-opacity:1"
       d="m 99.213445,26.82838 0.20219,-0.57998 c -1.8888,-1.31951 -2.91255,-3.61336 -3.28894,-4.37194 0.028,0.47164 0.99657,3.23024 3.08675,4.95192 z"
       id="path986"
       sodipodi:nodetypes="cccc" />
    <path
       style="opacity:1;fill:#ffffff;fill-opacity:1;stroke:none;stroke-width:0.264583px;stroke-linecap:butt;stroke-linejoin:miter;stroke-opacity:1"
       d="m 80.511512,19.53165 c 0.184756,0.57471 0.687647,3.09351 0.727465,5.19847 0.0149,0.7878 -0.768224,4.48995 -0.768224,4.48995 0,0 1.380883,-0.25591 1.869977,0.007 0.563349,0.30283 1.206727,1.0806 1.582998,1.63803 0.414217,-1.31836 1.560351,-3.65135 2.088,-4.71868 0.66232,-1.33976 2.414824,-4.05092 2.414824,-4.05092 -0.530965,-0.48719 -1.486071,-1.81323 -1.591416,-2.45959 -0.40218,-0.01 -1.253345,0.007 -1.601366,0.34567 -0.164938,-0.2412 -0.493267,-0.5164 -1.139982,-0.67974 -1.160117,-0.29301 -2.709404,-0.006 -3.582276,0.22981 z"
       id="path988"
       sodipodi:nodetypes="cscscscccsc" />
    <path
       style="opacity:1;fill:#ffffff;fill-opacity:1;stroke:none;stroke-width:0.264583px;stroke-linecap:butt;stroke-linejoin:miter;stroke-opacity:1"
       d="m 87.344128,19.44021 c 0.233875,0.69729 0.750439,1.61098 1.334402,2.14523 0.04697,-0.19523 0.567065,-1.00659 0.703355,-1.10672 -0.327811,-0.30683 -0.871935,-1.55525 -0.923702,-2.00399 -0.284875,0.13407 -0.872934,0.65831 -1.114055,0.96548 z"
       id="path998"
       sodipodi:nodetypes="ccccc" />
    <path
       style="opacity:1;fill:#000000;fill-opacity:1;stroke:none;stroke-width:0.264583px;stroke-linecap:butt;stroke-linejoin:miter;stroke-opacity:1"
       d="m 82.506682,26.04628 c 0.764384,-1.21679 1.108558,-1.68364 0.852628,-3.17447 -0.362094,-1.86941 -0.389672,-2.31347 -0.279064,-2.70492 0.104524,0.91415 0.338875,1.9818 0.514882,2.6909 0.354989,1.46821 -0.494264,2.7683 -1.088446,3.18849 z"
       id="path1000"
       sodipodi:nodetypes="ccccc" />
    <path
       style="opacity:1;fill:#000000;fill-opacity:1;stroke:none;stroke-width:0.264583px;stroke-linecap:butt;stroke-linejoin:miter;stroke-opacity:1"
       d="m 85.30268,20.36123 c -0.05373,0.36297 0.03172,0.93798 0.319828,1.72131 0.221002,0.60088 0.787177,1.63079 1.164105,2.0602 0.0137,-0.051 0.192126,-0.42767 0.298839,-0.56788 -0.457329,-0.37443 -1.022758,-0.98151 -1.288438,-1.65329 -0.200698,-0.50747 -0.325626,-0.7125 -0.494334,-1.56034 z"
       id="path1002"
       sodipodi:nodetypes="csccsc" />
    <path
       style="opacity:1;fill:#ffffff;fill-opacity:1;stroke:none;stroke-width:0.264583px;stroke-linecap:butt;stroke-linejoin:miter;stroke-opacity:1"
       d="m 88.946269,21.97706 c 0.08396,0.14561 0.639026,0.75688 0.836736,0.84554 l 0.3391,-0.4887 c -0.15751,-0.11614 -0.60824,-0.94278 -0.69079,-1.20562 -0.18871,0.20365 -0.448398,0.6207 -0.485046,0.84878 z"
       id="path1004"
       sodipodi:nodetypes="ccccc" />
    <path
       style="opacity:1;fill:#ffffff;fill-opacity:1;stroke:none;stroke-width:0.264583px;stroke-linecap:butt;stroke-linejoin:miter;stroke-opacity:1"
       d="m 88.526293,22.62189 c -0.178881,0.22817 -0.433309,0.66303 -0.512139,0.88525 0.232543,0.11169 1.031042,0.12133 1.293881,0.0388 l 0.18165,-0.25745 c -0.23006,-0.07 -0.79895,-0.43371 -0.963392,-0.66658 z"
       id="path1006"
       sodipodi:nodetypes="ccccc" />
    <path
       style="opacity:1;fill:#ffffff;fill-opacity:1;stroke:none;stroke-width:0.264583px;stroke-linecap:butt;stroke-linejoin:miter;stroke-opacity:1"
       d="m 87.805899,23.94668 c -0.07842,0.0883 -0.342451,0.48242 -0.427141,0.74682 0.397225,-0.0738 0.9841,-0.0548 1.343516,-0.20162 0.112676,-0.21587 0.482611,-0.65224 0.482611,-0.65224 -0.245664,0.0899 -0.893289,0.16902 -1.398986,0.10704 z"
       id="path1008"
       sodipodi:nodetypes="ccccc" />
    <path
       style="opacity:1;fill:#ffffff;fill-opacity:1;stroke:none;stroke-width:0.264583px;stroke-linecap:butt;stroke-linejoin:miter;stroke-opacity:1"
       d="m 86.84681,25.68787 c 0.0014,-0.11722 0.153031,-0.43161 0.303021,-0.58276 0.194734,0.0386 0.816702,0.0767 1.3394,-0.13845 -0.125473,0.14132 -0.347833,0.57095 -0.347833,0.57095 -0.27951,0.0835 -1.035631,0.14324 -1.294588,0.15026 z"
       id="path1010"
       sodipodi:nodetypes="ccccc" />
    <path
       style="opacity:1;fill:#ffffff;fill-opacity:1;stroke:none;stroke-width:0.264583px;stroke-linecap:butt;stroke-linejoin:miter;stroke-opacity:1"
       d="m 89.821065,23.64118 c -0.26622,0.16642 -0.6253,0.7231 -0.703631,0.95366 0.104011,0.0608 1.319341,0.41956 1.782361,0.46734 l -0.0133,-0.36424 c -0.25904,-0.13521 -0.92741,-0.70519 -1.06544,-1.05676 z"
       id="path1012"
       sodipodi:nodetypes="ccccc" />
    <path
       style="opacity:1;fill:#ffffff;fill-opacity:1;stroke:none;stroke-width:0.264583px;stroke-linecap:butt;stroke-linejoin:miter;stroke-opacity:1"
       d="m 90.021025,23.22115 0.29094,-0.40202 c 0.0404,0.25697 0.6522,1.47596 0.6522,1.47596 0,0 -0.81989,-0.83026 -0.94314,-1.07394 z"
       id="path1014"
       sodipodi:nodetypes="cccc" />
    <path
       style="opacity:1;fill:#ffffff;fill-opacity:1;stroke:none;stroke-width:0.264583px;stroke-linecap:butt;stroke-linejoin:miter;stroke-opacity:1"
       d="m 88.744679,25.48627 c 0.01362,-0.19325 0.143361,-0.37102 0.280638,-0.45448 0.165348,0.10731 1.136958,0.21642 1.136958,0.21642 -0.36685,0.0218 -1.096398,0.15204 -1.417596,0.23806 z"
       id="path1016"
       sodipodi:nodetypes="cccc" />
    <path
       style="opacity:1;fill:#ffffff;fill-opacity:1;stroke:none;stroke-width:0.264583px;stroke-linecap:butt;stroke-linejoin:miter;stroke-opacity:1"
       d="m 86.50997,26.37029 c -0.597354,0.89928 -1.656961,3.19971 -2.294111,4.82314 l -2.212729,4.3239 2.148885,-2.13575 c 1.489245,-2.27036 2.024051,-5.29404 3.815609,-7.2541 z"
       id="path1018"
       sodipodi:nodetypes="cccccc" />
    <path
       style="opacity:1;fill:#ffffff;fill-opacity:1;stroke:none;stroke-width:0.264583px;stroke-linecap:butt;stroke-linejoin:miter;stroke-opacity:1"
       d="m 86.964724,29.18158 c 0.334799,-1.12433 0.941179,-2.46559 1.597106,-2.97312 0.429584,-0.0925 1.826315,-0.24239 2.732535,-0.48032 -0.9204,1.12566 -2.772788,2.05569 -4.329641,3.45344 z"
       id="path1020"
       sodipodi:nodetypes="cccc" />
    <path
       style="opacity:1;fill:#ffffff;fill-opacity:1;stroke:none;stroke-width:0.264583px;stroke-linecap:butt;stroke-linejoin:miter;stroke-opacity:1"
       d="m 84.769468,33.44021 c 0.557519,-1.03716 1.285638,-2.40797 1.582303,-3.32922 1.561638,-1.59885 3.242404,-1.92163 4.390314,-3.16121 -0.33001,0.92324 -0.38055,1.41242 -0.33911,1.8283 0.39012,-0.47499 1.34538,-0.97278 1.57387,-1.07003 -0.59186,1.02247 -1.03375,2.37102 -1.14122,3.09696 0.72826,-1.29603 1.82116,-1.79681 3.06981,-2.50161 -0.41697,0.94788 -0.62965,1.67419 -0.434,2.65262 0.31583,-0.0355 0.7314,-0.14574 1.00678,-0.58045 0,0 -7.2e-4,0.64781 0.16439,1.17348 -2.57255,0.63815 -4.56745,1.53035 -6.001123,3.87461 -0.645367,0.12203 -1.571281,-0.6044 -1.571281,-0.6044 -0.480584,-0.0384 -2.421085,0.685 -4.190919,1.87787 0.80467,-1.10205 1.60425,-2.4367 1.890186,-3.25692 z"
       id="path1022"
       sodipodi:nodetypes="cccccccccccscc" />
    <path
       style="opacity:1;fill:#ffffff;fill-opacity:1;stroke:none;stroke-width:0.264583px;stroke-linecap:butt;stroke-linejoin:miter;stroke-opacity:1"
       d="m 94.680645,31.74353 c -1.86544,0.42879 -4.39102,1.29424 -5.955611,3.68812 l -0.04672,0.19939 c -0.170268,0.022 -0.399382,0.0525 -0.857948,-0.0978 0.729633,0.50044 1.913129,1.01603 3.631279,0.58516 2.3172,-0.72589 4.41857,-1.96472 5.41128,-3.9779 -1.59596,1.21893 -2.61142,1.0929 -3.16721,1.89505 0.13622,-0.69439 0.37284,-1.4692 0.98493,-2.29206 z"
       id="path1024"
       sodipodi:nodetypes="ccccccccc" />
    <path
       style="opacity:1;fill:#000000;fill-opacity:1;stroke:none;stroke-width:0.264583px;stroke-linecap:butt;stroke-linejoin:miter;stroke-opacity:1"
       d="m 93.275025,34.22166 0.0765,-0.33163 c -0.72379,0.56364 -1.94993,1.22473 -3.59716,1.38178 1.36843,-1.26458 3.25466,-2.17762 3.8449,-2.20086 0,0 0.28023,-0.6782 0.46521,-0.89591 -0.80236,0.237 -3.95601,1.72599 -5.061294,3.4364 1.040404,-0.0145 2.477164,0.46809 4.271814,-1.38978 z"
       id="path1026"
       sodipodi:nodetypes="ccccccc" />
    <path
       style="opacity:1;fill:#000000;fill-opacity:1;stroke:none;stroke-width:0.264583px;stroke-linecap:butt;stroke-linejoin:miter;stroke-opacity:1"
       d="m 90.168575,29.31944 c -0.41296,0.71675 -0.64916,1.6077 -0.66137,1.9493 -0.0155,0.43291 0.0285,1.14601 0.2781,2.06004 -0.16597,-1.25831 -0.1504,-2.49695 0.38327,-4.00934 z"
       id="path1028"
       sodipodi:nodetypes="cscc" />
    <path
       style="opacity:1;fill:#ffffff;fill-opacity:1;stroke:none;stroke-width:0.264583px;stroke-linecap:butt;stroke-linejoin:miter;stroke-opacity:1"
       d="m 97.842105,30.87794 0.29635,0.19993 c 0,0 -0.8626,1.81668 -1.95702,3.11165 1.12363,-1.64812 1.66067,-3.31158 1.66067,-3.31158 z"
       id="path1030"
       sodipodi:nodetypes="cccc" />
    <path
       style="opacity:1;fill:#ffffff;fill-opacity:1;stroke:none;stroke-width:0.264583px;stroke-linecap:butt;stroke-linejoin:miter;stroke-opacity:1"
       d="m 88.86676,44.01185 0.953275,-0.29092 c 1.05199,-0.88247 3.78795,-3.8396 3.78795,-3.8396 0,0 -2.99302,2.85527 -4.741225,4.13052 z"
       id="path1032"
       sodipodi:nodetypes="cccc" />
    <path
       style="opacity:1;fill:#ffffff;fill-opacity:1;stroke:none;stroke-width:0.264583px;stroke-linecap:butt;stroke-linejoin:miter;stroke-opacity:1"
       d="m 81.431307,30.68177 c 0.165654,-0.19917 0.482568,-0.39801 0.902258,-0.30462 0.463351,0.0316 0.897815,0.38879 1.269881,0.87549 l -0.389142,0.74471 C 82.76985,31.08898 81.69281,30.70173 81.431307,30.68177 Z"
       id="path1034"
       sodipodi:nodetypes="ccccc" />
    <path
       style="opacity:1;fill:#ffffff;fill-opacity:1;stroke:none;stroke-width:0.264583px;stroke-linecap:butt;stroke-linejoin:miter;stroke-opacity:1"
       d="m 80.490175,31.53811 c 0.701852,-0.13637 1.948551,0.33384 2.378871,0.80524 -0.05673,0.24002 -0.306082,0.8228 -0.446753,1.04415 -0.821765,-0.80884 -1.117714,-1.28644 -1.932118,-1.84939 z"
       id="path1036"
       sodipodi:nodetypes="cccc" />
    <path
       style="opacity:1;fill:#ffffff;fill-opacity:1;stroke:none;stroke-width:0.264583px;stroke-linecap:butt;stroke-linejoin:miter;stroke-opacity:1"
       d="m 80.478287,32.53275 c 0.03808,0.28251 -0.09995,0.66777 -0.256118,0.86717 0.189477,0.20172 0.797823,0.2839 1.406748,0.17672 -0.195902,-0.509 -1.15063,-1.04389 -1.15063,-1.04389 z"
       id="path1038"
       sodipodi:nodetypes="cccc" />
    <path
       style="opacity:1;fill:#ffffff;fill-opacity:1;stroke:none;stroke-width:0.264583px;stroke-linecap:butt;stroke-linejoin:miter;stroke-opacity:1"
       d="m 79.048918,33.9666 c 0.575896,0.33259 1.81711,0.90963 2.280001,1.33176 0.17254,-0.2824 0.482949,-0.83332 0.783788,-1.14701 -0.336332,0.11465 -1.936521,0.0677 -3.063789,-0.18475 z"
       id="path1040"
       sodipodi:nodetypes="cccc" />
    <path
       style="opacity:1;fill:#ffffff;fill-opacity:1;stroke:none;stroke-width:0.264583px;stroke-linecap:butt;stroke-linejoin:miter;stroke-opacity:1"
       d="m 77.118366,34.73212 c 1.047655,0.50571 3.337564,1.00859 4.070705,1.00052 -1.022529,0.91271 -4.760941,2.31812 -6.522457,2.74228 0.726715,-0.31533 2.945495,-1.60678 3.194266,-2.00021 -0.0613,-0.43416 -0.446098,-1.33423 -0.742514,-1.74259 z"
       id="path1042"
       sodipodi:nodetypes="ccccc" />
    <path
       style="opacity:1;fill:#ffffff;fill-opacity:1;stroke:none;stroke-width:0.264583px;stroke-linecap:butt;stroke-linejoin:miter;stroke-opacity:1"
       d="m 80.957039,38.59809 c 0.666239,-0.53656 1.261729,-1.06892 1.634595,-1.56438 0,0 2.261062,-0.18169 2.881658,-0.49072 -0.219583,0.48635 -1.45505,1.39988 -2.149195,1.66595 -0.345321,0.16251 -1.975153,0.41319 -2.367058,0.38915 z"
       id="path1048"
       sodipodi:nodetypes="ccccc" />
    <path
       style="opacity:1;fill:#ffffff;fill-opacity:1;stroke:none;stroke-width:0.264583px;stroke-linecap:butt;stroke-linejoin:miter;stroke-opacity:1"
       d="m 81.515116,36.31608 c 0.343237,-0.13754 1.054143,-0.56466 1.771816,-1.15952 -0.458461,1.01454 -1.661349,2.17372 -1.661349,2.17372 0,0 -1.187372,0.85705 -1.815074,0.99475 0.635288,-0.57323 1.323405,-1.38388 1.704607,-2.00895 z"
       id="path1050"
       sodipodi:nodetypes="ccccc" />
    <path
       style="opacity:1;fill:#ffffff;fill-opacity:1;stroke:none;stroke-width:0.264583px;stroke-linecap:butt;stroke-linejoin:miter;stroke-opacity:1"
       d="m 79.387531,40.8278 c 0.398047,-0.3416 0.805794,-0.87329 0.922348,-1.16469 0.73667,0.006 1.964565,0.0274 3.605303,-0.5219 0.07562,0.14611 0.471957,0.56884 0.836003,0.78148 -0.520716,0.24848 -2.078591,0.64128 -2.582802,0.60431 0.486716,0.30575 1.569665,0.49716 2.219987,0.45852 0.162956,0.20785 -0.458422,0.94682 -0.446361,1.43138 -1.509151,0.7925 -5.507351,1.20981 -6.266641,1.10433 0,0 1.013278,-1.05078 1.224928,-1.4315 0.934957,0.24564 2.965924,-0.0424 3.061019,-0.13171 z"
       id="path1052"
       sodipodi:nodetypes="ccccccccccc" />
    <path
       style="opacity:1;fill:#ffffff;fill-opacity:1;stroke:none;stroke-width:0.264583px;stroke-linecap:butt;stroke-linejoin:miter;stroke-opacity:1"
       d="m 79.213619,39.12766 c 0.165073,-0.01 0.970941,-0.18786 1.175471,-0.33017 -0.427616,0.56971 -1.693188,2.17132 -1.693188,2.17132 -0.232896,0.26232 -0.909645,0.62202 -1.331317,0.69441 0.189477,0.20172 0.948302,0.22763 1.252064,0.16225 -1.534452,1.9454 -3.619822,3.66008 -5.457966,4.72606 1.710828,-1.6754 5.864419,-7.04574 6.054936,-7.42387 z"
       id="path1054"
       sodipodi:nodetypes="ccccccc" />
    <path
       style="opacity:1;fill:#ffffff;fill-opacity:1;stroke:none;stroke-width:0.264583px;stroke-linecap:butt;stroke-linejoin:miter;stroke-opacity:1"
       d="m 86.146302,36.81064 c -0.04985,0.28743 -0.464406,0.91448 -1.169367,1.44166 0.529805,0.18605 3.088995,0.16785 4.42644,-0.69812 -1.472346,0.004 -2.774151,-0.22003 -3.257073,-0.74354 z"
       id="path1056"
       sodipodi:nodetypes="cccc" />
    <path
       style="opacity:1;fill:#ffffff;fill-opacity:1;stroke:none;stroke-width:0.264583px;stroke-linecap:butt;stroke-linejoin:miter;stroke-opacity:1"
       d="m 75.475077,46.10622 c 0.255897,-0.0744 1.737573,-1.02619 1.89692,-1.33147 0.812996,0.14101 4.316429,0.15763 4.871184,-0.0647 l -0.651645,0.58302 c -1.183058,0.40161 -4.951136,0.90951 -6.116459,0.8131 z"
       id="path1058"
       sodipodi:nodetypes="ccccc" />
    <path
       style="opacity:1;fill:#ffffff;fill-opacity:1;stroke:none;stroke-width:0.264583px;stroke-linecap:butt;stroke-linejoin:miter;stroke-opacity:1"
       d="m 81.018979,55.17186 c 3.123739,-2.78879 5.732638,-5.8783 7.811766,-8.72335 -1.504995,2.55061 -2.208927,3.84669 -2.397101,4.66249 -0.478164,0.71471 -3.035016,2.68887 -5.414665,4.06086 z"
       id="path1060"
       sodipodi:nodetypes="cccc" />
    <path
       style="opacity:1;fill:#ffffff;fill-opacity:1;stroke:none;stroke-width:0.264583px;stroke-linecap:butt;stroke-linejoin:miter;stroke-opacity:1"
       d="m 73.710562,35.72741 c 2.232141,-1.27507 3.597935,-2.94553 5.028464,-4.98452 -0.773371,2.39229 -2.270554,3.47305 -4.153133,4.97983 0.271291,1.08898 -0.252804,1.59282 -0.896768,2.43164 -0.196943,0.0709 -0.924018,-0.21724 -1.066331,-0.42177 0.524171,-0.58717 0.783066,-1.29304 1.087768,-2.00518 z"
       id="path1062"
       sodipodi:nodetypes="cccccc" />
    <path
       style="opacity:1;fill:#ffffff;fill-opacity:1;stroke:none;stroke-width:0.264583px;stroke-linecap:butt;stroke-linejoin:miter;stroke-opacity:1"
       d="m 72.002001,27.2858 c 0.811335,-0.86909 6.696215,-6.78752 7.833271,-7.56504 0.177926,0.60472 0.633843,1.78429 0.744658,4.16815 0.05924,1.2743 -0.671902,3.82636 -0.974022,4.31762 -1.314019,1.78197 -4.759975,3.9273 -7.15712,6.19961 -1.975035,0.61433 -7.39511,2.59298 -9.113787,2.74244 1.500112,-1.43806 5.794298,-4.84071 5.794298,-4.84071 0.62826,-2.56951 1.853015,-3.92979 2.872702,-5.02207 z"
       id="path1064"
       sodipodi:nodetypes="scsccccs" />
    <path
       style="opacity:1;fill:#000000;fill-opacity:1;stroke:none;stroke-width:0.264583px;stroke-linecap:butt;stroke-linejoin:miter;stroke-opacity:1"
       d="m 67.419074,34.98901 c 2.557335,-1.16957 5.387602,-2.92332 7.214577,-5.23275 -1.504798,0.56272 -2.772745,2.10473 -3.551018,2.76686 -1.033296,0.87909 -1.920381,1.53402 -3.663559,2.46589 z"
       id="path1066"
       sodipodi:nodetypes="ccsc" />
    <path
       style="opacity:1;fill:#000000;fill-opacity:1;stroke:none;stroke-width:0.264583px;stroke-linecap:butt;stroke-linejoin:miter;stroke-opacity:1"
       d="m 72.709021,28.82936 c 0,0 3.216184,-3.62257 5.491938,-4.75174 0.157826,-0.53002 0.901386,-0.97435 0.903948,-1.32948 -0.314973,-0.12328 -0.813147,0.0698 -1.157066,0.25592 -1.078922,0.56108 -4.677781,4.51404 -5.23882,5.8253 z"
       id="path1068"
       sodipodi:nodetypes="ccccc" />
    <path
       style="opacity:1;fill:#ffffff;fill-opacity:1;stroke:none;stroke-width:0.264583px;stroke-linecap:butt;stroke-linejoin:miter;stroke-opacity:1"
       d="m 74.076506,39.8944 c 1.263614,-0.24074 2.263828,-0.35281 3.656818,-0.98643 0.718203,-0.32668 2.194496,-1.30182 2.687833,-2.15942 -0.400411,0.82841 -1.976631,2.57864 -2.238594,2.94918 -0.877895,0.35982 -2.854573,0.54828 -4.106057,0.19667 z"
       id="path1070"
       sodipodi:nodetypes="csccc" />
    <path
       style="opacity:1;fill:#ffffff;fill-opacity:1;stroke:none;stroke-width:0.264583px;stroke-linecap:butt;stroke-linejoin:miter;stroke-opacity:1"
       d="m 71.32041,43.89193 c 0.03641,-0.58196 0.604941,-0.97072 0.75472,-1.03878 0.483309,-0.22987 3.125402,-1.16783 4.024438,-0.97277 0.404155,-0.36716 1.322669,-1.23819 1.454932,-1.60103 l 0.355708,-0.18679 c -1.441966,2.22887 -3.152561,4.21015 -4.922326,6.1733 1.086028,-1.43711 2.142868,-2.96716 2.142868,-2.96716 -0.867626,0.13439 -2.849087,0.44145 -3.81034,0.59323 z"
       id="path1072"
       sodipodi:nodetypes="cccccccc" />
    <path
       style="opacity:1;fill:#ffffff;fill-opacity:1;stroke:none;stroke-width:0.264583px;stroke-linecap:butt;stroke-linejoin:miter;stroke-opacity:1"
       d="m 72.815847,41.98705 c 0.442483,-0.48597 0.440724,-1.01143 0.521848,-1.63746 1.131157,0.70481 1.940724,0.56331 3.014539,0.32288 -0.640073,0.77432 -2.93609,1.27891 -3.536387,1.31458 z"
       id="path1074"
       sodipodi:nodetypes="cccc" />
    <path
       style="opacity:1;fill:#ffffff;fill-opacity:1;stroke:none;stroke-width:0.264583px;stroke-linecap:butt;stroke-linejoin:miter;stroke-opacity:1"
       d="m 71.348679,39.29033 c 0.242585,-0.2984 0.838,-0.91352 0.955789,-1.12167 0.129121,0.18165 0.698725,0.48009 0.867302,0.52923 -0.112885,0.29069 -0.41922,1.70909 -0.432052,2.28965 0.01273,0.41338 -0.386179,1.05029 -0.528952,1.23627 -0.438947,0.17991 -1.370572,1.01665 -1.481235,1.54386 -0.02544,0.36832 -0.191989,1.00731 -0.348654,1.15861 -0.06864,0.0396 -0.535978,0.61145 -0.777283,0.73228 -0.185152,0.0702 -0.632659,0.0543 -0.632659,0.0543 l -1.303586,1.71738 c -0.08196,-0.18445 -0.679161,-0.78247 -0.835247,-0.82052 0.148958,-0.281 1.257455,-1.57468 1.522341,-1.69691 0.01926,-0.2733 0.414284,-1.40219 0.667959,-1.71308 0.185733,-0.25952 1.003516,-1.04084 1.386311,-1.17008 0.03513,-0.4044 0.745245,-2.43193 0.939966,-2.73932 z"
       id="path1076"
       sodipodi:nodetypes="ccccccccccccccc" />
    <path
       style="opacity:1;fill:#ffffff;fill-opacity:1;stroke:none;stroke-width:0.264583px;stroke-linecap:butt;stroke-linejoin:miter;stroke-opacity:1"
       d="m 70.297084,45.7868 c 0.387579,-0.24785 0.860958,-0.84395 0.974543,-1.12285 0.19356,0.0713 2.274373,0.0423 2.666157,-0.13476 L 72.41445,46.57208 C 71.705471,46.38939 70.474068,45.97744 70.297084,45.7868 Z"
       id="path1078"
       sodipodi:nodetypes="ccccc" />
    <path
       style="opacity:1;fill:#ffffff;fill-opacity:1;stroke:none;stroke-width:0.264583px;stroke-linecap:butt;stroke-linejoin:miter;stroke-opacity:1"
       d="m 68.70999,46.75673 0.484468,-0.60859 c 0.277909,0.19647 2.79564,0.65032 2.79564,0.65032 l -0.06082,0.37042 c 0,0 0.6583,-0.43516 0.853491,-0.5355 -0.724312,0.85357 -2.096462,2.81615 -2.820774,3.66972 -0.120192,-0.33009 -1.304684,-1.7447 -1.53625,-2.15691 0.728647,0.0159 2.296022,-0.29026 2.716583,-0.48091 -0.728587,0.0847 -2.670423,-0.0366 -3.149068,-0.12645 l 0.330318,-0.31545 2.315872,-0.15491 c 0,0 -1.806997,-0.24211 -1.92946,-0.31174 z"
       id="path1080"
       sodipodi:nodetypes="cccccccccccc" />
    <path
       style="opacity:1;fill:#ffffff;fill-opacity:1;stroke:none;stroke-width:0.264583px;stroke-linecap:butt;stroke-linejoin:miter;stroke-opacity:1"
       d="m 70.224894,50.45365 c 0.920494,-1.0368 1.830427,-2.28004 2.711224,-3.58663 0,0 1.576185,-0.29538 2.373953,-0.35946 1.938719,-0.15573 4.881048,0.22298 5.834594,-0.0585 -0.218062,0.71108 -1.871212,2.52559 -2.507644,2.82272 -1.309855,0.61154 -4.87661,1.45843 -5.288073,1.68641 -0.402943,0.22326 -0.830978,0.98339 -1.040752,1.63482 -0.487874,-0.44431 -1.874328,-1.80863 -2.083302,-2.13936 z"
       id="path1082"
       sodipodi:nodetypes="ccscsscc" />
    <path
       style="opacity:1;fill:#ffffff;fill-opacity:1;stroke:none;stroke-width:0.264583px;stroke-linecap:butt;stroke-linejoin:miter;stroke-opacity:1"
       d="m 73.47857,53.72673 -0.67619,-1.02475 c 0.855956,0.0675 3.337422,-0.38765 5.279065,-1.16566 -0.996965,0.74554 -4.013327,2.15537 -4.602875,2.19041 z"
       id="path1084"
       sodipodi:nodetypes="cccc" />
    <path
       style="opacity:1;fill:#ffffff;fill-opacity:1;stroke:none;stroke-width:0.264583px;stroke-linecap:butt;stroke-linejoin:miter;stroke-opacity:1"
       d="m 72.837184,35.02451 0.564315,0.48522 c 1.499242,-0.95925 3.615939,-2.79189 4.990018,-4.73099 -2.294343,1.65911 -4.754447,3.34482 -5.554333,4.24577 z"
       id="path1086"
       sodipodi:nodetypes="cccc" />
    <path
       style="opacity:1;fill:#ffffff;fill-opacity:1;stroke:none;stroke-width:0.264583px;stroke-linecap:butt;stroke-linejoin:miter;stroke-opacity:1"
       d="m 61.851048,38.11451 c 1.327517,-0.37678 2.723912,-0.4914 4.09502,-0.4348 1.578448,0.0652 3.589403,0.62335 4.506028,0.56052 -2.333796,1.35968 -4.057441,3.58083 -6.201957,5.14891 0.645113,-0.54872 1.485188,-1.5201 1.639961,-1.87234 -1.539726,0.18995 -3.459523,0.17365 -4.621133,-0.50635 0.527258,0.84719 2.451134,1.61122 2.596616,1.88091 0.04775,0.0885 -0.03015,0.30918 -0.220337,0.48782 0.158907,-10e-4 0.504562,-0.33882 0.685919,-0.5253 -1.022922,1.28074 -2.118289,2.50621 -3.543319,3.20218 1.177549,-0.88157 1.792664,-1.69209 1.792664,-1.69209 0,0 -1.410059,0.93949 -1.704422,0.78757 -0.258918,-0.13363 -1.855144,-0.37886 -2.787111,-0.30768 -0.54511,0.0416 -1.370731,0.21196 -1.583952,0.42544 0.266389,0.11804 0.607794,0.73576 0.701173,1.04693 0.09684,0.32271 0.223042,0.84057 -0.01304,1.37335 0.231638,0.23724 1.009632,0.22929 1.191707,0.14218 0.477109,-0.22826 1.120312,-0.5996 2.368439,-1.56066 -1.567881,1.45311 -3.268985,2.61784 -5.004205,3.79982 0,0 0.631933,-0.53235 0.86364,-0.99793 -0.409271,0.4343 -0.999647,0.59007 -1.470004,0.74998 -0.186124,0.0633 -0.692565,-0.0697 -1.083606,-0.31425 0.204729,0.34761 0.368627,0.74875 0.393895,1.17396 0.269687,-0.10807 0.799528,-0.4314 1.099011,-0.74204 -0.256719,0.46707 -0.924466,0.9958 -1.280415,1.20102 -0.01784,-0.30014 -0.491304,-1.34946 -0.711916,-1.67426 -0.292989,-0.43137 -0.8798,-0.52118 -1.074039,-0.55147 0.861031,0.69192 1.125593,1.51743 1.498317,2.51414 l -0.748777,0.54146 c -0.541914,-0.90083 -0.971399,-1.83272 -1.771319,-2.51578 0,0 0.458545,-0.81184 0.768349,-1.15009 0.495349,-0.54084 1.489743,-1.2599 1.808053,-1.25371 -0.0021,-0.17558 0.165829,-0.72942 0.521607,-1.2191 0.371463,-0.50736 1.787282,-1.73934 2.676828,-1.97627 0.15609,-0.6117 0.793839,-1.68098 1.379451,-2.39052 0.967879,-1.17269 3.065102,-3.30394 3.232874,-3.35155 z"
       id="path1088"
       sodipodi:nodetypes="ssccccsccccsscscscccsccccsccccscccss" />
    <path
       style="opacity:1;fill:#ffffff;fill-opacity:1;stroke:none;stroke-width:0.264583px;stroke-linecap:butt;stroke-linejoin:miter;stroke-opacity:1"
       d="m 57.080308,45.28997 c 0.227179,0.1622 0.518214,0.43899 0.614577,0.73606 0.107243,0.33061 -0.153362,0.43283 -0.02773,1.06802 0.06581,0.33271 0.620688,0.26734 0.72913,0.13359 0.141342,-0.17432 0.191078,-0.63021 0.03687,-0.97246 0.24047,0.24508 0.278521,0.31611 0.326305,0.51308 0.04975,0.20509 0.07365,0.43867 -0.121412,0.67617 0.429089,-0.1008 1.156215,-0.78499 1.156215,-0.78499 0,0 -0.512359,0.0505 -0.736645,-0.0509 -0.188009,-0.085 -0.304954,-0.13378 -0.44001,-0.43533 0.31303,0.19894 0.792458,0.39887 1.028776,0.21221 0.107499,-0.0849 0.264772,-0.39077 0.06755,-0.67966 -0.631553,-0.92511 -2.04315,-0.47598 -2.633624,-0.41579 z"
       id="path1090"
       sodipodi:nodetypes="cssscsccscssc" />
    <path
       style="opacity:1;fill:#ffffff;fill-opacity:1;stroke:none;stroke-width:0.264583px;stroke-linecap:butt;stroke-linejoin:miter;stroke-opacity:1"
       d="m 56.072471,50.33568 c 1.699307,-0.43266 3.227293,-1.47404 4.599755,-2.1155 1.470699,-0.68737 3.215033,-2.74825 3.736856,-3.52471 2.578574,-1.60864 5.250308,-4.0064 6.214462,-5.10496 0.01517,-0.1429 0.118307,-0.62429 0.441206,-1.16411 -4.837269,2.8223 -10.487947,9.13691 -14.992279,11.90928 z"
       id="path1092"
       sodipodi:nodetypes="cscccc" />
    <path
       style="opacity:1;fill:#ffffff;fill-opacity:1;stroke:none;stroke-width:0.264583px;stroke-linecap:butt;stroke-linejoin:miter;stroke-opacity:1"
       d="m 53.475403,52.18933 0.341273,0.67417 0.658813,-0.59973 0.243839,-0.68384 0.537066,0.0266 0.434694,-0.56968 0.816745,0.22753 c 0,0 1.212218,-1.14299 1.314164,-1.25782 0,0 -1.805645,0.55039 -2.168888,0.67273 -0.573245,0.19307 -2.177706,1.51004 -2.177706,1.51004 z"
       id="path1094"
       sodipodi:nodetypes="ccccccccsc" />
    <path
       style="opacity:1;fill:#ffffff;fill-opacity:1;stroke:none;stroke-width:0.264583px;stroke-linecap:butt;stroke-linejoin:miter;stroke-opacity:1"
       d="m 45.1719,50.68763 c -4.11e-4,-0.10647 0.698556,-0.14208 0.991288,-0.0944 0.214478,-0.19973 0.366878,-0.40437 0.590468,-0.48686 0.31408,-0.11588 0.687905,-0.0843 0.990349,-0.11264 0.248891,-0.19227 0.91149,-0.43211 1.164645,-0.45307 0.33394,-0.0553 1.60067,-0.0655 2.132084,0.11594 0.449928,0.204 0.679118,0.7446 0.715722,1.0619 -0.190577,0.27756 -0.822348,0.32644 -1.063644,0.26402 -0.761259,-0.27556 -1.590288,-0.32366 -2.231072,-0.79615 0.137758,0.12789 0.190254,0.20361 0.201755,0.29759 -0.197172,0.26612 -0.738315,0.50734 -1.192908,0.6231 -0.318295,0.11949 -1.030728,0.20601 -1.349092,0.22819 -0.259832,0.0181 -0.873414,-0.26167 -0.949595,-0.64762 z"
       id="path1096"
       sodipodi:nodetypes="ccsccccccccsc" />
    <path
       style="opacity:1;fill:#ffffff;fill-opacity:1;stroke:none;stroke-width:0.264583px;stroke-linecap:butt;stroke-linejoin:miter;stroke-opacity:1"
       d="m 45.416963,52.44516 c 0.133144,-0.0493 0.599654,-0.0323 0.722468,0.0432 0.260452,0.002 0.366404,0.28312 0.350179,0.40833 0.09223,-0.041 0.418709,-0.1157 0.568595,3e-4 0.159331,0.12331 0.175362,0.38248 0.1519,0.58503 0.178205,-0.0875 0.644943,-0.12042 0.928928,0.003 0.139595,0.0607 0.292069,0.18614 0.312618,0.33283 0.102265,-0.0712 0.468915,-0.25255 0.700262,-0.18385 0.157554,0.0468 0.262863,0.20952 0.331277,0.36519 0.0638,-0.0215 0.221682,0.0273 0.270764,0.0509 0.06585,0.0316 0.183028,0.26404 0.190035,0.38195 -0.0062,0.095 -0.283075,0.52895 -0.526818,0.70902 -0.113309,0.0837 -0.388797,0.22035 -0.734484,0.0616 -0.110508,-0.0508 -0.138424,-0.30406 -0.06576,-0.57461 -0.141081,0.11488 -0.387601,0.26839 -0.633186,0.23454 -0.481165,-0.0663 -0.776466,-0.29005 -0.825924,-0.70901 -0.24755,0.11529 -0.444882,0.1635 -0.747687,0.0869 -0.410607,-0.10387 -0.275986,-0.56104 -0.294789,-0.87774 -0.248661,-0.003 -0.525679,-0.0812 -0.739728,-0.19868 -0.100634,-0.10051 -0.198556,-0.57444 0.04135,-0.71885 z"
       id="path1098"
       sodipodi:nodetypes="cccscscscscsscscsccc" />
    <path
       style="opacity:1;fill:#ffffff;fill-opacity:1;stroke:none;stroke-width:0.264583px;stroke-linecap:butt;stroke-linejoin:miter;stroke-opacity:1"
       d="m 83.865469,59.66475 c 0,0 1.949811,-1.0388 2.901014,-1.75795 1.589075,-1.1357 6.008812,-8.00093 6.865692,-8.71447 0.735,-0.37499 3.77431,-1.22729 5.24217,-1.38828 1.884135,-0.20664 6.667615,-0.1004 7.178835,-0.0598 -0.37007,0.54262 -2.36361,3.83222 -2.60746,5.50327 -6.441245,0.52476 -12.471165,3.39159 -19.580251,6.41721 z"
       id="path1100"
       sodipodi:nodetypes="cccsccc" />
    <path
       style="opacity:1;fill:#ffffff;fill-opacity:1;stroke:none;stroke-width:0.264583px;stroke-linecap:butt;stroke-linejoin:miter;stroke-opacity:1"
       d="m 84.280954,42.30977 0.176316,-0.41209 c 1.686971,-0.33452 3.698523,-0.83894 5.672595,-1.69253 -1.394413,0.75221 -3.716672,1.65997 -5.848911,2.10462 z"
       id="path1102"
       sodipodi:nodetypes="cccc" />
    <path
       style="opacity:1;fill:#ffffff;fill-opacity:1;stroke:none;stroke-width:0.264583px;stroke-linecap:butt;stroke-linejoin:miter;stroke-opacity:1"
       d="m 81.295745,47.08559 0.308872,-0.53373 c 0.978529,-0.2593 2.796634,-0.79697 4.324893,-1.56224 -1.042727,0.77192 -3.8321,1.84718 -4.633765,2.09597 z"
       id="path1104"
       sodipodi:nodetypes="cccc" />
    <path
       style="opacity:1;fill:#ffffff;fill-opacity:1;stroke:none;stroke-width:0.264583px;stroke-linecap:butt;stroke-linejoin:miter;stroke-opacity:1"
       d="m 84.22481,59.95055 c 3.95408,-1.60714 8.464205,-3.4314 12.295785,-4.84719 -2.64602,0.80986 -3.90514,1.28902 -6.27651,2.23043 -3.77554,1.49886 -4.042235,1.81319 -6.019275,2.61676 z"
       id="path1106"
       sodipodi:nodetypes="ccsc" />
    <path
       style="opacity:1;fill:#ffffff;fill-opacity:1;stroke:none;stroke-width:0.264583px;stroke-linecap:butt;stroke-linejoin:miter;stroke-opacity:1"
       d="m 92.323855,49.52938 0.73948,-0.22801 c -0.94962,1.4788 -3.65039,5.87294 -7.137715,8.85799 2.899906,-2.7326 5.641945,-6.99533 6.398235,-8.62998 z"
       id="path1108"
       sodipodi:nodetypes="cccc" />
    <path
       style="opacity:1;fill:#ffffff;fill-opacity:1;stroke:none;stroke-width:0.264583px;stroke-linecap:butt;stroke-linejoin:miter;stroke-opacity:1"
       d="m 103.45031,55.11682 c 0.76676,-3.32607 1.66932,-5.03136 3.04963,-7.22162 0.19765,-0.0591 0.67992,0.29091 0.69043,0.46778 -0.75694,0.80226 -2.0338,4.40426 -2.39778,5.8458 -0.55573,0.17997 -0.92417,0.52391 -1.34228,0.90804 z"
       id="path1110"
       sodipodi:nodetypes="ccccc" />
    <path
       style="opacity:1;fill:#ffffff;fill-opacity:1;stroke:none;stroke-width:0.264583px;stroke-linecap:butt;stroke-linejoin:miter;stroke-opacity:1"
       d="m 107.63144,48.61974 c 0.57586,0.11638 0.99523,0.97836 1.16611,1.31962 -0.52878,1.52073 -2.55031,5.01817 -3.52375,6.03276 -0.50806,0.52954 -2.30912,0.88312 -3.33347,1.06824 l -0.20597,-0.15492 c 0.84926,-0.35168 2.86566,-1.43012 3.13063,-2.1608 0.3693,-1.01831 1.9857,-6.0083 2.76645,-6.1049 z"
       id="path1112"
       sodipodi:nodetypes="ccsccsc" />
    <path
       style="opacity:1;fill:#ffffff;fill-opacity:1;stroke:none;stroke-width:0.264583px;stroke-linecap:butt;stroke-linejoin:miter;stroke-opacity:1"
       d="m 102.58084,53.73921 0.63166,-0.071 c -0.089,0.47383 -0.67076,1.94752 -1.10017,2.32445 0.34785,-0.62309 0.51194,-1.80417 0.46851,-2.2534 z"
       id="path1114"
       sodipodi:nodetypes="cccc" />
    <path
       style="opacity:1;fill:#ffffff;fill-opacity:1;stroke:none;stroke-width:0.264583px;stroke-linecap:butt;stroke-linejoin:miter;stroke-opacity:1"
       d="m 108.66886,52.53485 c -0.73408,0.39837 -2.11431,3.69905 -2.6997,4.34917 -1.12118,1.24517 -2.42632,0.38846 -3.33793,0.68553 -0.50189,0.5653 -1.7413,4.91297 -1.5908,6.37561 0.40404,3.92659 1.755,6.24215 1.69759,8.65523 0.0743,2.94073 -0.31641,4.82577 -1.17853,5.65502 -0.50275,0.4836 -1.01451,0.70351 -1.12,1.4628 0.12021,0.89648 1.0099,1.59655 1.56018,1.56385 1.50486,-0.17554 3.68267,-1.01905 4.04712,-2.58338 -0.34016,-0.31507 -0.50215,-0.31957 -0.67086,-0.56987 0.10646,-0.59795 2.40131,-14.60023 3.45178,-22.04994 0.10135,-1.11045 -0.0864,-2.39063 -0.15885,-3.54402 z"
       id="path1116"
       sodipodi:nodetypes="cscscscccccc" />
    <path
       style="opacity:1;fill:#ffffff;fill-opacity:1;stroke:none;stroke-width:0.264583px;stroke-linecap:butt;stroke-linejoin:miter;stroke-opacity:1"
       d="m 103.33473,84.67325 c 0.95425,-0.26969 2.16743,-0.99986 3.01104,-2.9702 0.52574,-1.2279 1.69573,-1.31626 2.14955,-0.80492 0.30317,0.34159 0.2655,1.04875 0.0479,1.36933 0.42844,-0.35677 1.49349,-0.28329 1.80089,-0.10702 0.4042,0.23177 0.4982,1.18934 0.26188,1.59089 -0.77448,1.31597 -3.84135,2.09068 -7.27126,0.92192 z"
       id="path1118"
       sodipodi:nodetypes="csscssc" />
    <path
       style="opacity:1;fill:#ffffff;fill-opacity:1;stroke:none;stroke-width:0.264583px;stroke-linecap:butt;stroke-linejoin:miter;stroke-opacity:1"
       d="m 66.635598,47.63344 c 1.133929,1.06306 2.267857,2.8112 3.118303,3.54353 -1.464657,-0.49609 -3.75614,-0.68509 -5.055434,-1.32292 0.188989,-0.70871 1.133932,-1.86626 1.937131,-2.22061 z"
       id="path1120"
       sodipodi:nodetypes="cccc" />
    <path
       style="opacity:1;fill:#ffffff;fill-opacity:1;stroke:none;stroke-width:0.264583px;stroke-linecap:butt;stroke-linejoin:miter;stroke-opacity:1"
       d="m 63.84722,51.10423 c 0.153552,-0.33073 0.4311,-0.74478 0.572841,-0.79203 1.854446,0.33073 5.381461,2.01515 6.18466,2.14508 0.815012,0.2008 1.502205,1.02637 1.620322,1.28623 -2.858445,-0.70871 -6.40526,-1.93058 -8.377823,-2.63928 z"
       id="path1122"
       sodipodi:nodetypes="ccccc" />
    <path
       style="opacity:1;fill:#ffffff;fill-opacity:1;stroke:none;stroke-width:0.264583px;stroke-linecap:butt;stroke-linejoin:miter;stroke-opacity:1"
       d="m 62.937427,52.39046 0.367496,-0.63477 c 0.3842,-0.0668 2.511703,0.29119 3.390981,0.78511 1.828335,1.02703 5.245164,2.03793 5.930042,2.15486 0.451018,0.31738 1.403167,1.75395 1.670436,2.35531 -0.50113,-0.45102 -2.062529,-1.34904 -2.885321,-1.53114 -1.215483,-0.269 -5.800938,-2.39438 -8.473634,-3.12937 z"
       id="path1124"
       sodipodi:nodetypes="ccsccsc" />
    <path
       style="opacity:1;fill:#ffffff;fill-opacity:1;stroke:none;stroke-width:0.264583px;stroke-linecap:butt;stroke-linejoin:miter;stroke-opacity:1"
       d="m 62.010335,53.27579 0.375849,-0.30903 9.087164,3.34922 2.789624,1.23612 -4.192788,-0.80181 -3.892114,-1.52009 c 1.067723,0.8744 2.301507,1.82026 3.434087,2.0062 -0.543341,-0.0236 -3.460843,0.86226 -3.956937,1.50009 1.464658,0.11812 4.145927,0.37798 5.870443,-0.44884 -1.511905,0.94494 -5.244419,1.29929 -6.520089,1.32291 -0.637835,1.44103 -2.385976,2.66946 -2.645835,3.75614 0.708706,0.0236 9.00056,-1.46466 10.914064,-2.14974 -1.842634,1.18118 -9.295853,2.95294 -11.823568,3.09468 -2.043242,-1.10186 -3.974795,-2.54182 -5.520282,-4.28729 -0.06682,-0.42596 0.317382,-0.55125 0.492778,-0.51784 0.86716,1.16945 2.350354,1.62816 3.608139,2.2885 -1.198935,-0.67837 -2.39248,-1.45741 -3.382629,-2.40543 -0.08352,-0.40091 0.292326,-0.5763 0.400904,-0.54289 0,0 1.139499,-1.59527 1.269428,-1.73111 0.06497,-0.1063 0.298545,-0.1961 0.475721,-0.18428 -0.04725,-0.12403 0.197035,-0.67288 0.329126,-0.78254 0.186802,-0.15508 0.689364,-0.25681 2.360727,0.0503 -0.726423,-0.30711 -0.96057,-0.51902 -1.427134,-0.5013 0.366164,-0.18899 1.425078,-0.13971 2.045195,0.067 -0.248047,-0.28348 -1.115976,-0.98895 -1.470328,-1.07163 l 1.054591,-1.04748 3.815196,1.61821 z"
       id="path1126"
       sodipodi:nodetypes="ccccccccccccccccccccsccccccc" />
    <path
       style="opacity:1;fill:#ffffff;fill-opacity:1;stroke:none;stroke-width:0.264583px;stroke-linecap:butt;stroke-linejoin:miter;stroke-opacity:1"
       d="m 61.099949,64.51781 -5.395502,-4.19279 -1.920042,2.16761 -1.204799,0.6969 2.173364,-0.0236 -2.350539,0.59059 -2.775763,2.82301 -1.038275,0.29362 -0.868624,0.43432 0.601355,0.83521 5.612662,1.03567 2.973372,-0.70158 -6.180609,-0.53454 4.810853,-0.26727 z"
       id="path1128" />
    <path
       style="opacity:1;fill:#ffffff;fill-opacity:1;stroke:none;stroke-width:0.264583px;stroke-linecap:butt;stroke-linejoin:miter;stroke-opacity:1"
       d="m 47.352273,67.50789 0.935442,1.23612 5.02801,0.78511 -4.810853,3.02348 c 0,0 4.693923,0.71829 4.627105,0.68488 -0.06682,-0.0334 -2.6894,0.95215 -2.6894,0.95215 L 46.884551,73.65509 44.99696,70.2474 Z"
       id="path1130" />
    <path
       style="opacity:1;fill:#ffffff;fill-opacity:1;stroke:none;stroke-width:0.264583px;stroke-linecap:butt;stroke-linejoin:miter;stroke-opacity:1"
       d="m 43.886155,69.85136 0.08268,2.57496 3.177363,2.64583 -3.909693,-1.9135 -0.377975,-2.69308 z"
       id="path1132" />
    <path
       style="opacity:1;fill:#ffffff;fill-opacity:1;stroke:none;stroke-width:0.264583px;stroke-linecap:butt;stroke-linejoin:miter;stroke-opacity:1"
       d="m 45.464683,76.54494 -2.472243,-3.0903 -0.325737,-2.73116 0.04176,2.66434 -0.693229,-2.52236 -0.192101,2.20498 -0.299331,-1.9316 -0.09449,1.9135 -0.578776,-1.52372 0.448844,3.1065 -0.909505,-3.1065 0.578776,4.16955 1.004001,2.52772 -0.153554,-2.63402 1.287482,1.81901 -1.110306,-3.66164 0.720519,0.95675 v -0.73233 l 1.133927,3.6144 0.09449,-1.42923 z"
       id="path1134" />
    <path
       style="opacity:1;fill:#ffffff;fill-opacity:1;stroke:none;stroke-width:0.264583px;stroke-linecap:butt;stroke-linejoin:miter;stroke-opacity:1"
       d="m 39.102393,71.36326 0.826823,-0.21261 0.685083,4.71289 0.779576,1.8072 -0.531529,0.29529 -1.122117,-2.43322 z"
       id="path1136" />
    <path
       style="opacity:1;fill:#ffffff;fill-opacity:1;stroke:none;stroke-width:0.264583px;stroke-linecap:butt;stroke-linejoin:miter;stroke-opacity:1"
       d="m 38.76624,72.71965 -0.158692,-1.08578 -6.037055,1.06412 -12.780319,6.47284 -1.819011,0.61421 0.496094,0.73233 z"
       id="path1138" />
    <path
       style="opacity:1;fill:#ffffff;fill-opacity:1;stroke:none;stroke-width:0.264583px;stroke-linecap:butt;stroke-linejoin:miter;stroke-opacity:1"
       d="m 18.065657,80.45831 -0.460658,-0.75595 -2.563151,-0.17718 -3.169604,0.86176 -2.555765,-0.50113 -1.336348,1.11919 -0.133634,1.18601 3.006782,3.29076 1.586913,-1.05238 -0.634766,-2.57247 1.887591,-0.4009 1.336348,1.5201 -1.1526,-1.67044 1.436574,-0.58465 0.701583,1.82077 -0.618061,-2.28849 z"
       id="path1140" />
  </g>
</svg>
